<?xml version="1.0" encoding="utf-8"?>
<!-- Generator: Adobe Illustrator 26.3.0, SVG Export Plug-In . SVG Version: 6.00 Build 0)  -->
<svg version="1.1" id="Capa_1" xmlns="http://www.w3.org/2000/svg" xmlns:xlink="http://www.w3.org/1999/xlink" x="0px" y="0px"
	 viewBox="0 0 512 512" style="enable-background:new 0 0 512 512;" xml:space="preserve">
<style type="text/css">
	.st0{fill:#BC955C;}
</style>
<g>
	<g>
		<g>
			<g>
				<polygon class="st0" points="122.7,132.3 122.7,115.8 73,115.8 41,169.2 55.1,177.7 82.3,132.3 				"/>
				<polygon class="st0" points="277.1,260.1 291.2,251.6 259.2,198.2 209.5,198.2 209.5,214.6 249.8,214.6 				"/>
				<path class="st0" d="M327.2,247.6l-49.4-82.4h-82.4L146,82.9H54.4L0,173.5l49.4,82.4L0,338.2l54.4,90.6h82.4l49.4,82.4h91.7
					l49.4-82.4h82.4l54.4-90.6l-54.4-90.6L327.2,247.6L327.2,247.6z M195.5,181.7h73l44.5,74.1l-22.2,37.1l-22.2,37.1h-73
					l-22.2-37.1L151,255.8l22.2-37.1L195.5,181.7z M19.2,173.5l44.5-74.1h73l44.5,74.1l-22.2,37.1l-22.2,37.1h-73L19.2,173.5z
					 M136.7,412.3h-73l-44.5-74.1L63.7,264h73l22.2,37.1l22.2,37.1l-22.2,37.1L136.7,412.3z M268.5,494.7h-73L151,420.5l22.2-37.1
					l22.2-37.1h73l22.2,37.1l22.2,37.1L268.5,494.7z M400.3,412.3h-73L305,375.2l-22.2-37.1l22.2-37.1l22.2-37.1h73l44.5,74.1
					L400.3,412.3z"/>
				<polygon class="st0" points="321.2,338.2 348.3,293 334.2,284.5 302,338.2 336.6,395.8 388.5,395.8 388.5,379.4 345.9,379.4 
									"/>
				<polygon class="st0" points="55.1,333.9 41,342.4 73,395.8 122.7,395.8 122.7,379.4 82.3,379.4 				"/>
				<rect x="240.2" y="362.9" class="st0" width="16.5" height="16.5"/>
				<polygon class="st0" points="170.2,420.5 202.4,474.2 216.5,465.7 189.4,420.5 214.1,379.4 223.7,379.4 223.7,362.9 
					204.8,362.9 				"/>
				<path class="st0" d="M484.6,105.5c-16.6-15.8-36-24.8-52.4-25.8c1.9-4.1,3-8.6,3-13.3c0-7.1-2.4-13.6-6.3-18.9l1.8-3.4
					c6.9-13.1,18.7-22.9,33.3-27.5l-5-15.7c-18.8,6-34,18.6-42.9,35.6l-0.2,0.4c-4.5-2.1-9.5-3.4-14.8-3.4s-10.3,1.3-14.8,3.4
					l-0.2-0.4c-8.9-17-24.1-29.6-42.9-35.6l-5,15.7c14.6,4.7,26.5,14.4,33.3,27.5l1.8,3.4c-3.9,5.4-6.3,11.9-6.3,18.9
					c0,5.1,1.3,9.9,3.5,14.2c-14.7,2.7-31,11.3-45.2,24.9c-17.1,16.3-27.4,36.2-27.4,53.1c0,9.3,3.1,17.2,9.1,22.8
					c6,5.7,14.1,8.4,23.4,8.4c7,0,14.7-1.6,22.5-4.7c7.2,32.4,26.1,54.1,48.3,54.1c22.9,0,42.4-23.4,49-57.2
					c10.2,5,20.4,7.7,29.5,7.7c9.3,0,17.4-2.7,23.4-8.4c5.9-5.6,9.1-13.5,9.1-22.8C512,141.7,501.8,121.8,484.6,105.5z M401.1,49.9
					c9.7,0,17.7,7.4,17.7,16.5s-7.9,16.5-17.7,16.5s-17.7-7.4-17.7-16.5S391.4,49.9,401.1,49.9z M411.6,149.2
					c-4.3-0.3-8.7-0.4-13-0.3c2.4-3.4,4.6-6.7,6.4-10.2C406.8,142.3,409,145.8,411.6,149.2z M318.3,169.5c-2.6-2.5-3.9-6.2-3.9-10.9
					c0-12.3,8.5-28.1,22.3-41.2c21.9-20.8,47-25.9,55.8-17.5c2.6,2.5,3.9,6.2,3.9,10.9c0,12.3-8.5,28.1-22.3,41.2
					C352.2,172.9,327.1,178,318.3,169.5z M401.1,222.9c-9.8,0-19.2-8.6-25.8-22.1c16.2-3.3,35.3-3.3,51.5,0
					C420.3,214.2,410.9,222.9,401.1,222.9z M432.5,185.2c-19.7-4.4-43.2-4.4-62.9,0c-0.7-2.5-1.2-5-1.7-7.6c5-3.1,9.9-6.8,14.6-11
					c15.3-2.2,32.5-1.5,46.8,1.8c1.8,1.6,3.7,3,5.6,4.4C434.4,177.1,433.6,181.2,432.5,185.2z M491.6,169.5
					c-8.8,8.5-33.9,3.4-55.8-17.5c-13.7-13.1-22.3-28.9-22.3-41.2c0-4.8,1.3-8.4,3.9-10.9c2.7-2.6,6.9-3.9,12.1-3.9
					c11.8,0,28.6,6.9,43.7,21.4c13.7,13.1,22.3,28.9,22.3,41.2C495.5,163.4,494.2,167,491.6,169.5z"/>
			</g>
		</g>
	</g>
</g>
</svg>
