<?xml version="1.0" encoding="utf-8"?>
<!-- Generator: Adobe Illustrator 26.3.0, SVG Export Plug-In . SVG Version: 6.00 Build 0)  -->
<svg version="1.1" id="Capa_1" xmlns="http://www.w3.org/2000/svg" xmlns:xlink="http://www.w3.org/1999/xlink" x="0px" y="0px"
	 viewBox="0 0 512 512" style="enable-background:new 0 0 512 512;" xml:space="preserve">
<style type="text/css">
	.st0{fill:#BC955C;}
</style>
<g>
	<path class="st0" d="M512,264.3V198c0-18.4-11.8-34.3-29.4-39.5l-53.2-15.9V130c15-10.5,24.8-27.8,24.8-47.4V57.8
		c0-31.9-25.9-57.8-57.8-57.8s-57.8,25.9-57.8,57.8v24.8c0,19.6,9.8,36.9,24.8,47.4v12.5l-46.8,14.1c-17.6-15.7-40-24.4-63.8-24.4
		c-23.7,0-45.4,8.7-62.1,23l-42-12.6V130c15-10.5,24.8-27.8,24.8-47.4V57.8c0-31.9-25.9-57.8-57.8-57.8S57.8,25.9,57.8,57.8v24.8
		c0,19.6,9.8,36.9,24.8,47.4v12.5l-53.2,15.9C11.8,163.7,0,179.6,0,198v66.3h16.5V198c0-11,7.1-20.6,17.7-23.7l53.2-16
		c4.8,6.2,14.1,15.1,28.3,15.1s23.5-8.9,28.3-15.1l33.9,10.2c-10.8,13.5-17.9,30-20.1,48c-10.5-11.2-25.5-18.3-42-18.3
		c-31.9,0-57.8,25.9-57.8,57.8v24.8c0,19.6,9.8,36.9,24.8,47.4v12.5l-53.2,15.9C11.8,361.9,0,377.8,0,396.2v74.5h99.1
		c4.5,0,8.3,3.7,8.3,8.3v33h297.3v-33c0-4.5,3.7-8.3,8.3-8.3H512v-74.5c0-18.4-11.8-34.3-29.4-39.5l-53.2-15.9v-12.5
		c15-10.5,24.8-27.8,24.8-47.4V256c0-31.9-25.9-57.8-57.8-57.8c-16.2,0-30.8,6.7-41.3,17.4v-7.8c0-16.3-8.9-31-22.7-38.8l35.7-10.7
		c4.8,6.2,14.1,15.1,28.3,15.1s23.5-8.9,28.3-15.1l53.2,16c10.6,3.2,17.6,12.7,17.6,23.7v66.3H512z M115.6,16.5
		c22.8,0,41.3,18.5,41.3,41.3H119c-5.2,0-10.4-2.1-14.1-5.8l-5.8-5.8L93.3,52c-3.7,3.7-8.9,5.8-14.1,5.8h-4.8
		C74.3,35,92.8,16.5,115.6,16.5z M74.3,82.6v-8.3h4.8c7.2,0,14.1-2.1,19.9-5.9c5.9,3.9,12.7,5.9,19.9,5.9h37.9v8.3
		c0,22.8-18.5,41.3-41.3,41.3S74.3,105.3,74.3,82.6z M115.6,156.9c-8.8,0-14.5-7.4-16.5-10.5V138c5.2,1.6,10.8,2.4,16.5,2.4
		s11.3-0.9,16.5-2.4v8.4C130.1,149.5,124.4,156.9,115.6,156.9z M342.6,301.8c4.2,10.7,11.5,19.8,20.7,26.3v12.5l-53.1,15.9
		c-1.8,0.5-3.5,1.2-5.1,1.9l-7.8-1.8v-16.3c8.8-7.1,15.8-16.4,20.1-27.1C326.9,312.6,335.8,308.6,342.6,301.8z M256,355.1
		c8.8,0,17.1-1.8,24.8-4.9v9L256,377.8l-24.8-18.6v-9C238.9,353.3,247.2,355.1,256,355.1z M221.1,372.3l20.1,15.1l-20.7,12.4
		l-5.2-26.2L221.1,372.3z M246.9,437.7h18.2l6.4,57.8h-31.1L246.9,437.7z M266.6,421.2h-21.1l-4.7-14.2l15.3-9.2l15.3,9.2
		L266.6,421.2z M270.8,387.4l20.1-15.1l5.8,1.3l-5.2,26.2L270.8,387.4z M332.1,289.2c-2.9,3.1-6.5,5.3-10.4,6.7
		c0.2-2.2,0.4-4.5,0.4-6.8v-39.5c8.9,3.4,15.5,11.2,16.4,20.5C339.1,277.2,336.9,283.9,332.1,289.2z M305.5,289
		c0,27.3-22.2,49.5-49.5,49.5s-49.5-22.2-49.5-49.5v-41.3h28c18,0,35.5-4.5,51.2-13.1l6.5,13.1h13.4V289z M190.3,295.9
		c-3.9-1.3-7.6-3.5-10.4-6.7c-4.8-5.2-7-12-6.3-19.1c0.9-9.3,7.5-17.2,16.4-20.5V289C189.9,291.3,190.1,293.6,190.3,295.9z
		 M194.7,313.4c4.3,10.7,11.2,20,20.1,27.1v16.3l-7.8,1.8c-1.7-0.8-3.4-1.4-5.1-1.9l-53.2-15.9v-12.5c9.3-6.5,16.5-15.6,20.7-26.3
		C176.2,308.6,185.1,312.6,194.7,313.4z M115.6,214.7c22.8,0,41.3,18.5,41.3,41.3h-4.8c-5.2,0-10.4-2.1-14.1-5.8l-5.8-5.8l-5.8,5.8
		c-3.7,3.7-8.9,5.8-14.1,5.8H74.3C74.3,233.2,92.8,214.7,115.6,214.7z M74.3,280.8v-8.3h37.9c7.2,0,14.1-2.1,19.9-5.9
		c5.9,3.9,12.7,5.9,19.9,5.9h4.8v8.3c0,22.8-18.5,41.3-41.3,41.3S74.3,303.5,74.3,280.8z M115.6,338.6c5.7,0,11.3-0.9,16.5-2.4v8.4
		c-2,3.2-7.7,10.5-16.5,10.5s-14.5-7.4-16.5-10.5v-8.4C104.3,337.7,109.9,338.6,115.6,338.6z M99.1,454.2h-33v-57.8H49.5v57.8h-33
		v-58c0-11,7.1-20.6,17.7-23.7l53.2-16c4.8,6.2,14.1,15.1,28.3,15.1s23.5-8.9,28.3-15.1l31.3,9.4l-23,5.3
		c-26.4,6.1-44.8,29.3-44.8,56.3v10.1h16.5v-10.1c0-19.3,13.2-35.9,32-40.2l43.3-10l9.7,48.7l17.3-10.4l4.9,14.7l-7.2,65.2h-42.2
		v-66.1h-16.5v66.1h-41.3V479C123.9,465.3,112.8,454.2,99.1,454.2z M477.8,372.5c10.6,3.2,17.7,12.7,17.7,23.7v58h-33v-57.8h-16.5
		v57.8h-33c-13.7,0-24.8,11.1-24.8,24.8v16.5h-41.3v-66.1h-16.5v66.1h-42.2l-7.2-65.2l4.9-14.7l17.3,10.4l9.7-48.7l43.3,10
		c18.8,4.4,32,20.9,32,40.2v10.1h16.5v-10.1c0-27.1-18.4-50.2-44.8-56.3l-23-5.3l31.3-9.4c4.8,6.2,14.1,15.1,28.3,15.1
		s23.5-8.9,28.3-15.1L477.8,372.5z M412.9,344.6c-2,3.2-7.7,10.5-16.5,10.5c-8.8,0-14.5-7.4-16.5-10.5v-8.4
		c5.2,1.6,10.8,2.4,16.5,2.4s11.3-0.9,16.5-2.4V344.6z M396.4,322.1c-22.8,0-41.3-18.5-41.3-41.3v-8.3h4.8c7.2,0,14.1-2.1,19.9-5.9
		c5.9,3.9,12.7,5.9,19.9,5.9h37.9v8.3C437.7,303.5,419.2,322.1,396.4,322.1z M396.4,214.7c22.8,0,41.3,18.5,41.3,41.3h-37.9
		c-5.2,0-10.4-2.1-14.1-5.8l-5.8-5.8l-5.8,5.8c-3.7,3.7-8.9,5.8-14.1,5.8h-4.8C355.1,233.2,373.6,214.7,396.4,214.7z M338.6,240.2
		c-7.3-5.5-16.4-9-26.2-9h-10l-10.2-20.3l-7.8,5.2c-14.9,9.9-32.1,15.1-50,15.1h-34.9c-9.8,0-18.9,3.4-26.2,9V228
		c0-43.7,35.6-79.3,79.3-79.3c21.2,0,41.1,8.2,56.1,23.2l8.8,8.8l1.9,0.6c11.4,3.8,19.1,14.5,19.1,26.5V240.2z M396.4,16.5
		c22.8,0,41.3,18.5,41.3,41.3h-4.8c-5.2,0-10.4-2.1-14.1-5.8l-5.8-5.8l-5.8,5.8c-3.7,3.7-8.9,5.8-14.1,5.8h-37.9
		C355.1,35,373.6,16.5,396.4,16.5z M355.1,82.6v-8.3H393c7.2,0,14.1-2.1,19.9-5.9c5.9,3.9,12.7,5.9,19.9,5.9h4.8v8.3
		c0,22.8-18.5,41.3-41.3,41.3S355.1,105.3,355.1,82.6z M396.4,156.9c-8.8,0-14.5-7.4-16.5-10.5V138c5.2,1.6,10.8,2.4,16.5,2.4
		s11.3-0.9,16.5-2.4v8.4C410.9,149.5,405.2,156.9,396.4,156.9z"/>
	<path class="st0" d="M189.9,0h16.5v16.5h-16.5V0z"/>
	<path class="st0" d="M189.9,33h16.5v90.8h-16.5V33z"/>
	<path class="st0" d="M305.5,0h16.5v16.5h-16.5V0z"/>
	<path class="st0" d="M305.5,33h16.5v90.8h-16.5V33z"/>
	<path class="st0" d="M223,33h16.5v57.8H223V33z"/>
	<path class="st0" d="M223,107.4h16.5v16.5H223V107.4z"/>
	<path class="st0" d="M272.5,33H289v57.8h-16.5V33z"/>
	<path class="st0" d="M272.5,107.4H289v16.5h-16.5V107.4z"/>
</g>
</svg>
