<?xml version="1.0"?>
<svg xmlns="http://www.w3.org/2000/svg" xmlns:xlink="http://www.w3.org/1999/xlink" xmlns:svgjs="http://svgjs.com/svgjs" version="1.1" width="512" height="512" x="0" y="0" viewBox="0 0 512.002 512.002" style="enable-background:new 0 0 512 512" xml:space="preserve" class=""><g>
<g xmlns="http://www.w3.org/2000/svg" id="XMLID_109_">
	<g id="XMLID_110_">
		<path id="XMLID_111_" d="M503.327,222.99c-20.23,3.207-41.593,7.951-63.53,14.081c-7.118-12.168-17.264-23.324-29.847-32.456    c33.297-10.271,65.401-17.63,95.6-21.896c4.102-0.58,6.957-4.374,6.378-8.476c-0.58-4.103-4.382-6.953-8.476-6.378    c-34.791,4.915-71.978,13.803-110.532,26.419c-1.576-0.787-3.172-1.552-4.799-2.28c-2.641-1.18-5.312-2.256-8.005-3.237    c8.906-20.025,11.176-41.674,6.354-61.099c-5.063-20.395-17.261-35.938-34.35-43.764c-26.654-12.21-60.001-2.244-82.748,24.172    c-15.056-9.337-32.016-13.11-48.856-10.338c-0.543,0.089-1.078,0.206-1.617,0.309c-24.835-38.637-66.782-66.771-118.497-79.365    c-9.371-2.279-19.238,0.719-25.756,7.829C51.833,51.413,35.335,80.09,26.936,109.442c-8.748,30.573-8.71,62.056,0.11,91.044    c8.467,27.831,24.882,52.936,47.647,73.08c-28.804,16.857-45.564,45.816-40.826,74.75c1.826,11.151,6.688,21.326,13.868,30.011    c-15.291,10.896-30.331,21.971-44.781,32.98c-3.294,2.511-3.93,7.217-1.42,10.512c1.477,1.937,3.711,2.954,5.972,2.954    c1.584,0,3.182-0.5,4.54-1.534c15.016-11.442,30.678-22.954,46.597-34.261c11.558,9.188,26.355,15.592,42.998,18.127    c-47.052,32.464-81.857,59.829-98.868,73.641c-3.216,2.61-3.706,7.334-1.095,10.55c1.482,1.825,3.646,2.772,5.827,2.772    c1.661,0,3.332-0.549,4.723-1.678c16.783-13.626,51.07-40.585,97.468-72.619c2.304,10.259,5.918,20.06,10.753,28.99    c1.358,2.508,3.938,3.931,6.603,3.931c1.205,0,2.429-0.291,3.563-0.905c3.643-1.973,4.997-6.523,3.025-10.166    c-6.985-12.903-11.061-27.955-11.784-43.529c-1.327-28.568,8.979-55.888,27.025-72.123c14.231,7.018,29.451,10.719,44.355,10.719    c2.089,0,4.176-0.072,6.248-0.219c9.9-0.699,19.057-3.034,27.184-6.841c15.215,15.32,24.547,37.871,25.687,62.399    c2.146,46.207-25.378,85.159-61.355,86.83c-13.183,0.606-26.117-3.854-37.434-12.913c-3.234-2.589-7.954-2.064-10.542,1.167    c-2.589,3.233-2.066,7.954,1.167,10.542c13.333,10.675,28.618,16.261,44.394,16.261c1.034,0,2.073-0.024,3.11-0.072    c34.284-1.593,62.373-29.571,72.105-67.431c9.442,7.217,19.644,13.321,30.458,18.183c20.14,9.056,41.778,13.641,64.358,13.641    c0.738,0,1.481-0.005,2.222-0.015c4.142-0.055,7.455-3.457,7.399-7.599c-0.055-4.107-3.401-7.4-7.497-7.4    c-0.034,0-0.067,0-0.102,0.001c-21.184,0.276-41.441-3.859-60.229-12.308c-12.136-5.457-23.419-12.65-33.591-21.361    c0.619-5.93,0.809-12.02,0.521-18.222c-1.252-26.931-11.236-51.968-27.631-69.792c3.425-2.74,6.537-5.837,9.321-9.253    l37.498,16.861c1.509,16.357,6.077,32.107,13.624,46.876c1.327,2.596,3.957,4.089,6.685,4.089c1.148,0,2.314-0.265,3.407-0.823    c3.688-1.885,5.15-6.403,3.266-10.092c-5.339-10.448-8.992-21.447-10.924-32.83l36.455,16.392    c1.509,16.358,6.077,32.108,13.624,46.877c1.327,2.596,3.957,4.089,6.685,4.089c1.148,0,2.314-0.265,3.407-0.823    c3.688-1.885,5.15-6.403,3.266-10.092c-5.339-10.448-8.992-21.448-10.924-32.83l38.293,17.219    c0.999,0.449,2.044,0.662,3.072,0.662c2.861,0,5.595-1.647,6.844-4.426c1.699-3.778,0.014-8.218-3.764-9.916L361.254,346.3    c9.795-6.108,20.447-10.676,31.804-13.616c4.011-1.038,6.42-5.13,5.382-9.14c-1.038-4.011-5.128-6.423-9.14-5.382    c-16.057,4.156-30.868,11.191-44.102,20.918l-36.457-16.393c9.795-6.108,20.447-10.676,31.805-13.617    c4.01-1.038,6.419-5.131,5.381-9.141c-1.038-4.011-5.127-6.418-9.141-5.381c-16.056,4.157-30.867,11.192-44.102,20.919    l-35.586-16.001c1.224-2.606,2.283-5.282,3.135-8.035c21.495-6.192,38.493-22.935,48.229-45.012    c24.532-1.821,47.926,2.168,69.557,11.895c50.536,22.725,83.69,73.125,90.963,138.277c0.463,4.149-1.368,8.221-4.779,10.625    c-22.424,15.807-46.171,26.594-70.582,32.062c-4.042,0.905-6.584,4.916-5.679,8.958c0.781,3.489,3.878,5.862,7.312,5.862    c0.543,0,1.094-0.06,1.646-0.184c26.348-5.901,51.899-17.488,75.945-34.438c7.882-5.556,12.114-14.962,11.045-24.548    c-3.747-33.563-14.492-64.852-31.075-90.487c-1.377-2.128-2.81-4.204-4.267-6.255c0.026-0.078,0.066-0.148,0.09-0.227    c4.664-15.422,3.548-31.738-2.268-47.146c20.491-5.633,40.42-10.016,59.303-13.009c4.092-0.648,6.882-4.49,6.233-8.581    C511.26,225.132,507.426,222.335,503.327,222.99z M41.396,196.121C25.268,143.109,41.418,84.983,85.706,36.647    c2.82-3.077,7.093-4.376,11.147-3.389c46.397,11.298,84.17,35.863,107.172,69.499c-25.763,11.669-44.244,39.603-47.804,73.841    c-4.609,0.225-9.121,0.808-13.489,1.75l-4.563-14.997c11.327-11.895,20.184-25.695,26.345-41.096    c1.538-3.846-0.333-8.21-4.179-9.749c-3.844-1.538-8.211,0.331-9.749,4.179c-4.355,10.889-10.254,20.857-17.55,29.796    l-12.213-40.141c-1.206-3.964-5.397-6.199-9.357-4.992c-3.963,1.205-6.198,5.396-4.992,9.357l12.22,40.166    c-11.045-3.359-21.493-8.377-31.178-14.997c-3.42-2.337-8.087-1.461-10.424,1.959c-2.338,3.42-1.46,8.087,1.959,10.424    c13.693,9.359,28.734,15.887,44.767,19.457l4.638,15.243c-6.702,2.956-12.817,6.919-18.115,11.865    c-2.061-1.227-4.093-2.515-6.065-3.864c-3.421-2.337-8.087-1.46-10.424,1.959c-2.338,3.42-1.461,8.087,1.959,10.424    c1.575,1.077,3.185,2.12,4.814,3.131c-10.505,16.349-12.825,36.708-6.461,57.593c0.061,0.201,0.135,0.398,0.198,0.599    c-1.661,0.558-3.3,1.148-4.91,1.777C66.249,247.484,49.635,223.199,41.396,196.121z M106.741,392.67    c-30.582-3.655-54.057-22.271-58.07-46.778c-4.579-27.963,17.308-56.273,51.361-67.314c7.672,15.166,19.654,28.738,34.792,39.145    c0.186,0.128,0.376,0.246,0.563,0.373C117.217,336.35,106.809,363.35,106.741,392.67z M198.427,321.506    c-18.481,1.308-38.062-4.428-55.105-16.145s-29.406-27.936-34.809-45.669c-5.217-17.121-3.255-33.584,5.525-46.355    c9.994-14.537,27.202-21.958,46.377-21.958c16.332,0,34.092,5.384,50.03,16.342c17.044,11.717,29.406,27.937,34.809,45.669    c5.217,17.122,3.255,33.585-5.525,46.355C230.95,312.516,216.282,320.244,198.427,321.506z M263.059,274.481    c0.307-8.235-0.817-16.802-3.456-25.463c-6.389-20.969-20.828-40.025-40.659-53.659c-15.076-10.364-31.622-16.376-47.693-18.239    c3.879-33.934,24.56-60.119,51.699-64.58c22.083-3.619,44.776,7.361,60.709,29.402c2.427,3.358,7.114,4.109,10.472,1.685    c3.357-2.427,4.111-7.115,1.685-10.472c-4.387-6.07-9.232-11.436-14.42-16.064c18.342-20.791,44.196-28.84,64.48-19.549    c12.852,5.887,22.098,17.869,26.037,33.74c4.094,16.492,1.997,35.073-5.903,52.323c-0.135,0.294-0.288,0.581-0.426,0.875    c-16.756-3.808-33.803-3.855-49.343-0.014c-0.101-0.686-0.184-1.37-0.296-2.057c-0.888-5.399-2.146-10.777-3.739-15.984    c-1.212-3.962-5.407-6.188-9.366-4.978c-3.961,1.212-6.189,5.405-4.978,9.366c1.398,4.569,2.502,9.289,3.282,14.029    C307.67,224.557,291.245,261.797,263.059,274.481z M384.173,244.635c-22.025-9.903-45.656-14.431-70.364-13.531    c2.622-9.905,3.917-20.504,3.7-31.448c19.922-5.604,43.225-3.465,64.489,6.042c35.324,15.793,57,47.561,54.329,77.24    C421.53,266.531,403.847,253.482,384.173,244.635z" fill="#092432" data-original="#000000" style="" class=""/>
		<path id="XMLID_118_" d="M215.363,365.983c4.143,0,7.5-3.357,7.5-7.5s-3.357-7.5-7.5-7.5h-0.104c-4.143,0-7.5,3.357-7.5,7.5    s3.357,7.5,7.5,7.5H215.363z" fill="#092432" data-original="#000000" style="" class=""/>
		<path id="XMLID_119_" d="M194.897,387.243H195c4.143,0,7.5-3.357,7.5-7.5s-3.357-7.5-7.5-7.5h-0.104c-4.143,0-7.5,3.357-7.5,7.5    S190.754,387.243,194.897,387.243z" fill="#092432" data-original="#000000" style="" class=""/>
		<path id="XMLID_120_" d="M339.163,155.139h0.104c4.143,0,7.5-3.357,7.5-7.5s-3.357-7.5-7.5-7.5h-0.104c-4.143,0-7.5,3.357-7.5,7.5    S335.021,155.139,339.163,155.139z" fill="#092432" data-original="#000000" style="" class=""/>
	</g>
</g>















</g></svg>
