<?xml version="1.0" encoding="utf-8"?>
<!-- Generator: Adobe Illustrator 26.3.0, SVG Export Plug-In . SVG Version: 6.00 Build 0)  -->
<svg version="1.1" id="Capa_1" xmlns:svgjs="http://svgjs.com/svgjs"
	 xmlns="http://www.w3.org/2000/svg" xmlns:xlink="http://www.w3.org/1999/xlink" x="0px" y="0px" viewBox="0 0 512 512"
	 style="enable-background:new 0 0 512 512;" xml:space="preserve">
<style type="text/css">
	.st0{fill:#BC955C;}
</style>
<g>
	<g id="XMLID_109_">
		<g id="XMLID_110_">
			<path id="XMLID_111_" class="st0" d="M503.3,223c-20.2,3.2-41.6,8-63.5,14.1c-7.1-12.2-17.3-23.3-29.8-32.5
				c33.3-10.3,65.4-17.6,95.6-21.9c4.1-0.6,7-4.4,6.4-8.5c-0.6-4.1-4.4-7-8.5-6.4c-34.8,4.9-72,13.8-110.5,26.4
				c-1.6-0.8-3.2-1.6-4.8-2.3c-2.6-1.2-5.3-2.3-8-3.2c8.9-20,11.2-41.7,6.4-61.1c-5.1-20.4-17.3-35.9-34.4-43.8
				c-26.7-12.2-60-2.2-82.7,24.2c-15.1-9.3-32-13.1-48.9-10.3c-0.5,0.1-1.1,0.2-1.6,0.3c-24.8-38.6-66.8-66.8-118.5-79.4
				c-9.4-2.3-19.2,0.7-25.8,7.8c-22.8,24.9-39.3,53.6-47.7,82.9c-8.7,30.6-8.7,62.1,0.1,91c8.5,27.8,24.9,52.9,47.6,73.1
				c-28.8,16.9-45.6,45.8-40.8,74.8c1.8,11.2,6.7,21.3,13.9,30c-15.3,10.9-30.3,22-44.8,33c-3.3,2.5-3.9,7.2-1.4,10.5
				c1.5,1.9,3.7,3,6,3c1.6,0,3.2-0.5,4.5-1.5c15-11.4,30.7-23,46.6-34.3c11.6,9.2,26.4,15.6,43,18.1c-47.1,32.5-81.9,59.8-98.9,73.6
				c-3.2,2.6-3.7,7.3-1.1,10.5c1.5,1.8,3.6,2.8,5.8,2.8c1.7,0,3.3-0.5,4.7-1.7c16.8-13.6,51.1-40.6,97.5-72.6
				c2.3,10.3,5.9,20.1,10.8,29c1.4,2.5,3.9,3.9,6.6,3.9c1.2,0,2.4-0.3,3.6-0.9c3.6-2,5-6.5,3-10.2c-7-12.9-11.1-28-11.8-43.5
				c-1.3-28.6,9-55.9,27-72.1c14.2,7,29.5,10.7,44.4,10.7c2.1,0,4.2-0.1,6.2-0.2c9.9-0.7,19.1-3,27.2-6.8
				c15.2,15.3,24.5,37.9,25.7,62.4c2.1,46.2-25.4,85.2-61.4,86.8c-13.2,0.6-26.1-3.9-37.4-12.9c-3.2-2.6-8-2.1-10.5,1.2
				c-2.6,3.2-2.1,8,1.2,10.5c13.3,10.7,28.6,16.3,44.4,16.3c1,0,2.1,0,3.1-0.1c34.3-1.6,62.4-29.6,72.1-67.4
				c9.4,7.2,19.6,13.3,30.5,18.2c20.1,9.1,41.8,13.6,64.4,13.6c0.7,0,1.5,0,2.2,0c4.1-0.1,7.5-3.5,7.4-7.6c-0.1-4.1-3.4-7.4-7.5-7.4
				c0,0-0.1,0-0.1,0c-21.2,0.3-41.4-3.9-60.2-12.3c-12.1-5.5-23.4-12.6-33.6-21.4c0.6-5.9,0.8-12,0.5-18.2
				c-1.3-26.9-11.2-52-27.6-69.8c3.4-2.7,6.5-5.8,9.3-9.3l37.5,16.9c1.5,16.4,6.1,32.1,13.6,46.9c1.3,2.6,4,4.1,6.7,4.1
				c1.1,0,2.3-0.3,3.4-0.8c3.7-1.9,5.1-6.4,3.3-10.1c-5.3-10.4-9-21.4-10.9-32.8l36.5,16.4c1.5,16.4,6.1,32.1,13.6,46.9
				c1.3,2.6,4,4.1,6.7,4.1c1.1,0,2.3-0.3,3.4-0.8c3.7-1.9,5.1-6.4,3.3-10.1c-5.3-10.4-9-21.4-10.9-32.8l38.3,17.2
				c1,0.4,2,0.7,3.1,0.7c2.9,0,5.6-1.6,6.8-4.4c1.7-3.8,0-8.2-3.8-9.9l-38.3-17.2c9.8-6.1,20.4-10.7,31.8-13.6c4-1,6.4-5.1,5.4-9.1
				c-1-4-5.1-6.4-9.1-5.4c-16.1,4.2-30.9,11.2-44.1,20.9l-36.5-16.4c9.8-6.1,20.4-10.7,31.8-13.6c4-1,6.4-5.1,5.4-9.1
				c-1-4-5.1-6.4-9.1-5.4c-16.1,4.2-30.9,11.2-44.1,20.9l-35.6-16c1.2-2.6,2.3-5.3,3.1-8c21.5-6.2,38.5-22.9,48.2-45
				c24.5-1.8,47.9,2.2,69.6,11.9c50.5,22.7,83.7,73.1,91,138.3c0.5,4.1-1.4,8.2-4.8,10.6c-22.4,15.8-46.2,26.6-70.6,32.1
				c-4,0.9-6.6,4.9-5.7,9c0.8,3.5,3.9,5.9,7.3,5.9c0.5,0,1.1-0.1,1.6-0.2c26.3-5.9,51.9-17.5,75.9-34.4c7.9-5.6,12.1-15,11-24.5
				c-3.7-33.6-14.5-64.9-31.1-90.5c-1.4-2.1-2.8-4.2-4.3-6.3c0-0.1,0.1-0.1,0.1-0.2c4.7-15.4,3.5-31.7-2.3-47.1
				c20.5-5.6,40.4-10,59.3-13c4.1-0.6,6.9-4.5,6.2-8.6C511.3,225.1,507.4,222.3,503.3,223z M41.4,196.1c-16.1-53,0-111.1,44.3-159.5
				c2.8-3.1,7.1-4.4,11.1-3.4C143.2,44.6,181,69.1,204,102.8c-25.8,11.7-44.2,39.6-47.8,73.8c-4.6,0.2-9.1,0.8-13.5,1.8l-4.6-15
				c11.3-11.9,20.2-25.7,26.3-41.1c1.5-3.8-0.3-8.2-4.2-9.7c-3.8-1.5-8.2,0.3-9.7,4.2c-4.4,10.9-10.3,20.9-17.6,29.8l-12.2-40.1
				c-1.2-4-5.4-6.2-9.4-5c-4,1.2-6.2,5.4-5,9.4l12.2,40.2c-11-3.4-21.5-8.4-31.2-15c-3.4-2.3-8.1-1.5-10.4,2
				c-2.3,3.4-1.5,8.1,2,10.4c13.7,9.4,28.7,15.9,44.8,19.5l4.6,15.2c-6.7,3-12.8,6.9-18.1,11.9c-2.1-1.2-4.1-2.5-6.1-3.9
				c-3.4-2.3-8.1-1.5-10.4,2c-2.3,3.4-1.5,8.1,2,10.4c1.6,1.1,3.2,2.1,4.8,3.1c-10.5,16.3-12.8,36.7-6.5,57.6
				c0.1,0.2,0.1,0.4,0.2,0.6c-1.7,0.6-3.3,1.1-4.9,1.8C66.2,247.5,49.6,223.2,41.4,196.1z M106.7,392.7
				c-30.6-3.7-54.1-22.3-58.1-46.8c-4.6-28,17.3-56.3,51.4-67.3c7.7,15.2,19.7,28.7,34.8,39.1c0.2,0.1,0.4,0.2,0.6,0.4
				C117.2,336.4,106.8,363.4,106.7,392.7z M198.4,321.5c-18.5,1.3-38.1-4.4-55.1-16.1s-29.4-27.9-34.8-45.7
				c-5.2-17.1-3.3-33.6,5.5-46.4c10-14.5,27.2-22,46.4-22c16.3,0,34.1,5.4,50,16.3c17,11.7,29.4,27.9,34.8,45.7
				c5.2,17.1,3.3,33.6-5.5,46.4C230.9,312.5,216.3,320.2,198.4,321.5z M263.1,274.5c0.3-8.2-0.8-16.8-3.5-25.5
				c-6.4-21-20.8-40-40.7-53.7c-15.1-10.4-31.6-16.4-47.7-18.2c3.9-33.9,24.6-60.1,51.7-64.6c22.1-3.6,44.8,7.4,60.7,29.4
				c2.4,3.4,7.1,4.1,10.5,1.7c3.4-2.4,4.1-7.1,1.7-10.5c-4.4-6.1-9.2-11.4-14.4-16.1c18.3-20.8,44.2-28.8,64.5-19.5
				c12.9,5.9,22.1,17.9,26,33.7c4.1,16.5,2,35.1-5.9,52.3c-0.1,0.3-0.3,0.6-0.4,0.9c-16.8-3.8-33.8-3.9-49.3,0
				c-0.1-0.7-0.2-1.4-0.3-2.1c-0.9-5.4-2.1-10.8-3.7-16c-1.2-4-5.4-6.2-9.4-5c-4,1.2-6.2,5.4-5,9.4c1.4,4.6,2.5,9.3,3.3,14
				C307.7,224.6,291.2,261.8,263.1,274.5z M384.2,244.6c-22-9.9-45.7-14.4-70.4-13.5c2.6-9.9,3.9-20.5,3.7-31.4
				c19.9-5.6,43.2-3.5,64.5,6c35.3,15.8,57,47.6,54.3,77.2C421.5,266.5,403.8,253.5,384.2,244.6z"/>
			<path id="XMLID_118_" class="st0" d="M215.4,366c4.1,0,7.5-3.4,7.5-7.5s-3.4-7.5-7.5-7.5h-0.1c-4.1,0-7.5,3.4-7.5,7.5
				s3.4,7.5,7.5,7.5H215.4z"/>
			<path id="XMLID_119_" class="st0" d="M194.9,387.2h0.1c4.1,0,7.5-3.4,7.5-7.5s-3.4-7.5-7.5-7.5h-0.1c-4.1,0-7.5,3.4-7.5,7.5
				S190.8,387.2,194.9,387.2z"/>
			<path id="XMLID_120_" class="st0" d="M339.2,155.1h0.1c4.1,0,7.5-3.4,7.5-7.5s-3.4-7.5-7.5-7.5h-0.1c-4.1,0-7.5,3.4-7.5,7.5
				S335,155.1,339.2,155.1z"/>
		</g>
	</g>
</g>
</svg>
