<?xml version="1.0" encoding="utf-8"?>
<!-- Generator: Adobe Illustrator 26.3.0, SVG Export Plug-In . SVG Version: 6.00 Build 0)  -->
<svg version="1.1" id="Capa_1" xmlns="http://www.w3.org/2000/svg" xmlns:xlink="http://www.w3.org/1999/xlink" x="0px" y="0px"
	 viewBox="0 0 496 496" style="enable-background:new 0 0 496 496;" xml:space="preserve">
<style type="text/css">
	.st0{fill:#BC955C;}
</style>
<path d="M176,440h16v16h-16V440z"/>
<path class="st0" d="M479.8,174.2c-4.1-4-11.7-11.4-11.8-14.2c0.1-2.8,7.7-10.2,11.8-14.2c9.1-8.9,18.5-18,15.7-28.6
	c-2.9-10.9-15.9-14.2-28.5-17.3c-5.3-1.3-15.1-3.8-16.6-5.9c-1.2-2.5,1.6-12.4,3.1-17.7c3.5-12.4,7.1-25.2-0.8-33
	c-7.8-7.9-20.6-4.2-33-0.8c-5.3,1.5-15.2,4.3-17.7,3.2c-2.2-1.6-4.7-11.4-6-16.7c-3.2-12.6-6.5-25.6-17.3-28.5
	c-10.6-2.8-19.7,6.6-28.6,15.7c-4,4.1-11.4,11.7-14.2,11.8c-2.8-0.1-10.2-7.7-14.2-11.8c-8.9-9.1-18-18.5-28.6-15.7
	c-10.9,2.9-14.2,15.9-17.3,28.5c-1.3,5.3-3.8,15.1-5.9,16.6c-2.5,1.2-12.4-1.6-17.7-3.1c-12.4-3.5-25.2-7.1-33,0.8
	c-7.9,7.8-4.2,20.6-0.8,33c1.5,5.3,4.3,15.2,3.2,17.7c-1.6,2.2-11.4,4.7-16.7,6c-9.9,2.5-19.9,5.1-25.2,11.3
	c-15-9.6-32.7-15.3-51.8-15.3c-52.9,0-96,43.1-96,96c0,8.8,1.2,17.4,3.5,25.7C15.1,223.2,0,241.9,0,264c0,26.5,21.5,48,48,48h104
	v100.4c-12.4,11.2-18.2,27.9-15.2,44.5c3.5,18.9,18.3,34.1,37,38c3.4,0.7,6.8,1,10.1,1c11,0,21.7-3.7,30.3-10.7
	c11.3-9.2,17.7-22.8,17.7-37.3c0-13.7-5.8-26.5-16-35.6V312h104c10.8,0,20.7-3.6,28.7-9.6c0.5,0.5,1,0.9,1.4,1.4
	c7.8,8,15.8,16.2,24.7,16.2c1.3,0,2.5-0.2,3.8-0.5c10.9-2.9,14.2-15.9,17.3-28.5c1.3-5.3,3.8-15.1,5.9-16.6
	c2.5-1.2,12.4,1.6,17.7,3.1c12.4,3.5,25.2,7.1,33-0.8c7.9-7.8,4.2-20.6,0.8-33c-1.5-5.3-4.3-15.2-3.2-17.7c1.6-2.2,11.4-4.7,16.7-6
	c12.6-3.2,25.6-6.5,28.5-17.3C498.3,192.2,488.9,183,479.8,174.2z M204.2,472.8c-7.6,6.2-17.2,8.5-27.1,6.4
	c-12.4-2.6-22.2-12.7-24.5-25.2c-2.2-12.2,2.4-24,12.3-31.5l3.2-2.4V392h16v-16h-16v-16h16v-16h-16v-16h16v-16h-16v-16h16v-16h-16
	v-16h16v-16h-16v-16c0-8.8,7.2-16,16-16c8.8,0,16,7.2,16,16v188.2l3.2,2.4c8.2,6.2,12.8,15.4,12.8,25.4
	C216,457.7,211.7,466.7,204.2,472.8z M320,296H216v-64c0-17.6-14.4-32-32-32s-32,14.4-32,32v64H48c-17.6,0-32-14.4-32-32
	s14.4-32,32-32s32,14.4,32,32h16c0-25.2-19.5-45.9-44.2-47.8c-2.5-7.8-3.8-15.9-3.8-24.2c0-44.1,35.9-80,80-80s80,35.9,80,80h16
	c0-8.9-1.3-17.5-3.6-25.6c8.6-4.1,18-6.4,27.6-6.4c32.8,0,60,24.9,63.6,56.8c-22.5,4-39.6,23.6-39.6,47.2h16c0-17.6,14.4-32,32-32
	c17.6,0,32,14.4,32,32S337.6,296,320,296z M327.6,216.7c-3.7-40.2-37.2-71.8-78.2-72.6C257,103,293.4,72,336,72
	c48.5,0,88,39.5,88,88c0,38.5-24.6,71.9-60.6,83.6C356.8,229.6,343.5,219.2,327.6,216.7z M463.1,204.6c-11.3,2.9-22,5.6-26.6,13.4
	c-4.6,8-1.6,18.7,1.6,30.1c1.5,5.3,4.3,15.2,3.6,17.2c-2.5,1.1-12.3-1.6-17.6-3.1c-11.3-3.2-22.1-6.2-30.1-1.6
	c-7.9,4.6-10.6,15.3-13.4,26.6c-1.4,5.4-3.9,15.5-5.5,16.9c-2.7-0.3-9.6-7.5-13.4-11.3c-0.6-0.6-1.2-1.2-1.8-1.8
	c5.2-7.7,8.2-16.9,8.2-26.8c0-1.7-0.1-3.3-0.3-5c42.9-13.7,72.3-53.3,72.3-99c0-57.3-46.7-104-104-104c-51.8,0-95.8,38.9-102.9,89.6
	c-6.3,1.2-12.5,3.1-18.3,5.7c-5.4-11.5-13-21.7-22.3-30.2c2.6-2.1,11.5-4.4,16.4-5.6c11.3-2.9,22-5.6,26.6-13.4
	c4.6-8,1.6-18.7-1.6-30.1c-1.5-5.3-4.3-15.2-3.6-17.2c2.5-1.2,12.3,1.6,17.6,3.1c11.4,3.2,22.1,6.2,30.1,1.6
	c7.9-4.6,10.6-15.3,13.4-26.6c1.4-5.4,3.9-15.5,5.5-16.9c2.7,0.3,9.6,7.5,13.4,11.3c8,8.2,16.2,16.6,25.6,16.6s17.7-8.5,25.6-16.6
	c3.7-3.8,10.7-11,12.7-11.5c2.3,1.6,4.8,11.7,6.2,17.1c2.9,11.3,5.6,22,13.4,26.6c8,4.6,18.7,1.6,30.1-1.6
	c5.3-1.5,15.1-4.2,17.2-3.6c1.1,2.5-1.6,12.3-3.1,17.6c-3.2,11.3-6.2,22.1-1.6,30.1c4.6,7.9,15.3,10.6,26.6,13.5
	c5.4,1.4,15.5,3.9,16.9,5.5c-0.3,2.7-7.5,9.6-11.3,13.4c-8.2,8-16.6,16.2-16.6,25.6c0,9.4,8.5,17.7,16.6,25.6
	c3.8,3.7,11,10.7,11.5,12.7C478.6,200.7,468.5,203.2,463.1,204.6z"/>
</svg>
