<?xml version="1.0" encoding="utf-8"?>
<!-- Generator: Adobe Illustrator 26.3.0, SVG Export Plug-In . SVG Version: 6.00 Build 0)  -->
<svg version="1.1" id="Capa_1" xmlns="http://www.w3.org/2000/svg" xmlns:xlink="http://www.w3.org/1999/xlink" x="0px" y="0px"
	 viewBox="0 0 512 512" style="enable-background:new 0 0 512 512;" xml:space="preserve">
<style type="text/css">
	.st0{fill:#BC955C;}
</style>
<g>
	<g>
		<g>
			<g>
				<path class="st0" d="M283.2,217.4c-3.6-3.1-7.8-5.2-12.4-6.7c-4.7-1-9.9-1.6-16.1-1.6h-23.9c-4.1,0-6.7,1-8.8,2.6
					c-1.6,1.6-2.6,4.7-2.6,8.8v66.9c0,3.1,0,5.2,1,7.3c0.5,2.1,1.6,3.1,3.1,4.1c1.6,1,4.1,1.6,7.8,1.6h23.9c4.1,0,7.8-0.5,11.4-1
					c3.1-0.5,6.2-1.6,9.3-2.6c3.1-1.6,5.7-3.1,7.8-5.2c3.1-3.1,5.7-6.2,7.8-9.9c2.1-3.6,3.6-7.8,4.7-12.4c1-4.7,1.6-9.3,1.6-15
					C297.8,238.1,293.1,225.7,283.2,217.4z M269.7,281.7c-1.6,1-3.1,2.1-4.7,2.6c-2.1,0.5-3.6,1-5.2,1c-1.6,0-4.1,0-7.3,0h-14v-62.2
					h12.4c5.7,0,10.4,0.5,14.5,2.1c4.1,1,7.3,4.1,9.9,8.8s4.1,11.4,4.1,20.2C279.1,267.7,276,276.5,269.7,281.7z"/>
				<path class="st0" d="M448.2,102.2l-0.5-0.5v-0.5L349.1,2.6l-0.5-0.5c0,0-0.5,0-0.5-0.5c0,0-0.5,0-0.5-0.5c-1.6-1-3.1-1-5.2-1H98
					c-9.3,0-18.2,3.6-24.4,9.9l-0.5,0.5c-6.2,6.2-10.4,15.6-10.4,24.9v441.5c0,9.9,4.1,18.7,10.4,24.9C79.4,507.9,88.7,512,98,512
					H414c9.9,0,18.7-4.1,24.9-10.4s10.4-15.6,10.4-24.9V107.4C449.2,105.3,448.7,103.7,448.2,102.2z M352.2,37.3L410.8,96h-43.1
					c-4.1,0-8.3-1.6-10.9-4.7c-2.6-2.6-4.7-6.7-4.7-10.9L352.2,37.3L352.2,37.3z M426.9,476.7c0,3.6-1.6,6.7-4.1,9.3
					s-5.7,4.1-9.3,4.1H98c-3.6,0-6.7-1.6-9.3-3.6c-2.6-2.6-3.6-5.7-3.6-9.3V34.8c0-3.6,1.6-6.7,4.1-9.3l0.5-0.5
					c2.6-2.1,5.7-3.6,8.8-3.6H331v58.6c0,10.4,4.1,19.7,11.4,27c6.7,6.7,16.6,10.9,27,10.9h57.6L426.9,476.7L426.9,476.7z"/>
				<path class="st0" d="M195.6,216.3c-2.6-2.6-5.7-4.1-9.9-5.2c-3.6-1-9.3-1.6-16.1-1.6h-23.9c-4.1,0-7.3,1-8.8,2.6
					c-2.1,1.6-2.6,4.7-2.6,8.8v70.5c0,3.6,1,6.2,2.6,8.3s4.1,2.6,6.7,2.6s4.7-1,6.7-3.1c1.6-2.1,2.6-4.7,2.6-8.3v-25.9h17.1
					c11.4,0,19.7-2.6,25.4-7.3c5.7-4.7,8.8-11.9,8.8-21.3c0-4.1-0.5-8.3-2.1-11.9C200.2,221.5,198.2,218.4,195.6,216.3z
					 M183.1,245.4c-1.6,2.1-3.6,3.6-6.7,4.7s-6.7,1.6-10.9,1.6H153v-28h12.4c8.3,0,13.5,1.6,16.6,4.1c2.6,2.6,3.6,5.7,3.6,9.9
					C185.2,240.7,184.7,243.3,183.1,245.4z"/>
				<path class="st0" d="M325.3,208.5c-3.1,0.5-5.2,1-6.7,2.1c-1.6,0.5-3.1,2.1-3.6,3.6c-1,1.6-1,3.6-1,6.7v70c0,3.6,1,6.7,2.6,8.3
					c1.6,2.1,4.1,2.6,6.7,2.6s4.7-1,6.7-2.6c1.6-2.1,2.6-4.7,2.6-8.3v-30.1h30.6c2.6,0,4.7-0.5,6.2-2.1c1.6-1,2.1-3.1,2.1-5.2
					s-0.5-3.6-2.1-5.2c-1.6-1-3.6-2.1-6.2-2.1h-30.6v-23.3h36.3c3.1,0,5.2-0.5,6.7-2.1c1.6-1.6,2.1-3.1,2.1-5.2s-0.5-3.6-2.1-5.2
					c-1.6-1.6-3.6-2.1-6.7-2.1L325.3,208.5L325.3,208.5z"/>
			</g>
		</g>
	</g>
</g>
</svg>
