<?xml version="1.0"?>
<svg xmlns="http://www.w3.org/2000/svg" id="Capa_1" enable-background="new 0 0 511.962 511.962" height="512px" viewBox="0 0 511.962 511.962" width="512px" class=""><g transform="matrix(0.489891 0 0 0.489891 130.578 130.578)"><path id="XMLID_244_" d="m485.05 66.889-64-63.962c-1.876-1.874-4.418-2.927-7.069-2.927h-296c-5.522 0-10 4.477-10 10v321.962h-34c-27.57 0-50 22.43-50 50v80c0 27.57 22.43 50 50 50h264 140c5.522 0 10-4.477 10-10v-200.873c0-5.523-4.478-10-10-10s-10 4.477-10 10v190.873h-90.027c6.292-8.363 10.027-18.753 10.027-30v-80c0-27.57-22.43-50-50-50h-210v-311.962h276v53.962c0 5.523 4.478 10 10 10h54v127.127c0 5.523 4.478 10 10 10s10-4.477 10-10v-137.127c0-2.653-1.055-5.198-2.931-7.073zm-117.069 315.073v80c0 16.542-13.458 30-30 30h-264c-16.542 0-30-13.458-30-30v-80c0-16.542 13.458-30 30-30h264c16.542 0 30 13.458 30 30zm56-347.83 29.848 29.83h-29.848z" data-original="#000000" class="active-path" data-old_color="#000000" fill="#FFFFFF"/><path id="XMLID_246_" d="m477.981 246.092c-2.63 0-5.21 1.06-7.07 2.93-1.86 1.86-2.93 4.43-2.93 7.07 0 2.63 1.069 5.21 2.93 7.07 1.86 1.86 4.44 2.93 7.07 2.93s5.21-1.07 7.069-2.93c1.86-1.86 2.931-4.44 2.931-7.07s-1.07-5.21-2.931-7.07c-1.859-1.87-4.439-2.93-7.069-2.93z" data-original="#000000" class="active-path" data-old_color="#000000" fill="#FFFFFF"/><path id="XMLID_247_" d="m295.981 431.962h4c5.514 0 10 4.486 10 10s-4.486 10-10 10h-14.5c-5.522 0-10 4.477-10 10s4.478 10 10 10h14.5c16.542 0 30-13.458 30-30s-13.458-30-30-30h-4c-5.514 0-10-4.486-10-10s4.486-10 10-10h11.5c5.522 0 10-4.477 10-10s-4.478-10-10-10h-11.5c-16.542 0-30 13.458-30 30s13.458 30 30 30z" data-original="#000000" class="active-path" data-old_color="#000000" fill="#FFFFFF"/><path id="XMLID_248_" d="m99.79 375.715c-3.452-4.313-9.744-5.012-14.056-1.562-4.313 3.45-5.012 9.743-1.562 14.056l27.002 33.753-27.002 33.753c-3.45 4.313-2.751 10.605 1.562 14.056 1.844 1.475 4.05 2.192 6.241 2.192 2.933 0 5.84-1.285 7.814-3.753l24.191-30.239 24.191 30.239c1.976 2.469 4.881 3.753 7.814 3.753 2.191 0 4.397-.717 6.241-2.192 4.313-3.45 5.012-9.743 1.562-14.056l-27.002-33.753 27.002-33.753c3.45-4.313 2.751-10.605-1.562-14.056-4.311-3.448-10.605-2.751-14.056 1.562l-24.191 30.239z" data-original="#000000" class="active-path" data-old_color="#000000" fill="#FFFFFF"/><path id="XMLID_1057_" d="m195.981 471.962h40c5.522 0 10-4.477 10-10s-4.478-10-10-10h-30v-70c0-5.523-4.478-10-10-10s-10 4.477-10 10v80c0 5.523 4.477 10 10 10z" data-original="#000000" class="active-path" data-old_color="#000000" fill="#FFFFFF"/><path id="XMLID_1098_" d="m177.981 109.962c-5.522 0-10 4.477-10 10v175.941c0 5.523 4.478 10 10 10h78.929c.353.038.709.059 1.071.059s.719-.022 1.071-.059h158.929c5.522 0 10-4.477 10-10v-175.941c0-5.523-4.478-10-10-10zm10 78.647h60v38.647h-60zm80 0h140v38.647h-140zm140-20h-140v-38.647h140zm-160-38.647v38.647h-60v-38.647zm-60 117.294h60v38.647h-60zm80 38.647v-38.647h140v38.647z" data-original="#000000" class="active-path" data-old_color="#000000" fill="#FFFFFF"/></g> </svg>
