<?xml version="1.0" encoding="utf-8"?>
<!-- Generator: Adobe Illustrator 26.3.0, SVG Export Plug-In . SVG Version: 6.00 Build 0)  -->
<svg version="1.1" id="Capa_1" xmlns="http://www.w3.org/2000/svg" xmlns:xlink="http://www.w3.org/1999/xlink" x="0px" y="0px"
	 viewBox="0 0 512 512" style="enable-background:new 0 0 512 512;" xml:space="preserve">
<style type="text/css">
	.st0{fill:#BC955C;}
</style>
<g>
	<g>
		<g>
			<path class="st0" d="M511.1,312.2L511.1,312.2l-84-183.4l20.4-10.1l-7.6-15.3l-19.9,9.9l-2.7-5.9c-2-4.3-7-6.2-11.3-4.2
				c-1.9,0.9-3.3,2.3-4.2,4.2l-2.4,5.2c-14.5-6.7-30.2-10.2-46.2-10.2h-71.7V85.3h17.1V68.3H284l6.1-24.6c4.7-18.9-6.8-38-25.6-42.7
				c-18.9-4.7-38,6.8-42.7,25.6c-1.4,5.6-1.4,11.5,0,17.1l6.1,24.6h-14.7v17.1h17.1v17.1h-71.6c-16,0-31.7,3.5-46.2,10.2l-2.4-5.2
				c-2-4.3-7-6.2-11.3-4.2c-1.9,0.9-3.3,2.3-4.2,4.2l-2.7,5.9l-19.9-9.9l-7.6,15.3l20.4,10.2L0.8,312.2c-0.5,1.1-0.8,2.3-0.8,3.6
				c0,33,26.8,59.7,59.7,59.7h85.3c33,0,59.7-26.8,59.7-59.7c0-1.2-0.3-2.4-0.9-3.5l-84.3-184.1c12.3-5.7,25.6-8.6,39.1-8.6h71.6
				v312.2l-29.1,29.1h-30.6c-23.6,0-42.6,19.1-42.7,42.7c0,4.7,3.8,8.5,8.5,8.5h238.9c4.7,0,8.5-3.8,8.5-8.5
				c0-23.6-19.1-42.6-42.7-42.7h-30.6l-29.1-29.1V119.5h71.7c13.5,0,26.9,2.9,39.1,8.6L308,312.2c-0.5,1.1-0.8,2.3-0.8,3.6
				c0,33,26.8,59.7,59.7,59.7h85.3c33,0,59.7-26.8,59.7-59.7C512,314.5,511.7,313.3,511.1,312.2z M145.1,358.4H59.7
				c-20.3,0-37.7-14.3-41.8-34.1h169C182.8,344.1,165.3,358.4,145.1,358.4z M183,307.2H21.8l78.4-171c1.4,0.4,2.9,0.4,4.4,0
				L183,307.2z M241.7,24c6.6-7.9,18.4-8.9,26.3-2.2c0.8,0.7,1.6,1.4,2.2,2.2c3.5,4.4,4.7,10.1,3.3,15.5l-7.2,28.7h-20.8l-7.2-28.7
				C237.1,34.2,238.3,28.4,241.7,24z M247.5,102.4V85.3h17.1v17.1H247.5z M264.5,119.5v307.2h-17.1V119.5H264.5z M341.3,477.9
				c10.8,0,20.5,6.8,24.1,17.1H146.5c3.6-10.2,13.3-17.1,24.1-17.1H341.3z M286.6,460.8h-61.2l17.1-17.1h27.1L286.6,460.8z
				 M407.4,136.2c1.4,0.5,3,0.4,4.3-0.2l78.5,171.2H329L407.4,136.2z M452.3,358.4h-85.3c-20.3,0-37.7-14.3-41.8-34.1h169
				C490,344.1,472.5,358.4,452.3,358.4z"/>
		</g>
	</g>
</g>
</svg>
