<?xml version="1.0" encoding="utf-8"?>
<!-- Generator: Adobe Illustrator 26.3.0, SVG Export Plug-In . SVG Version: 6.00 Build 0)  -->
<svg version="1.1" id="Capa_1" xmlns="http://www.w3.org/2000/svg" xmlns:xlink="http://www.w3.org/1999/xlink" x="0px" y="0px"
	 viewBox="0 0 480.3 480.3" style="enable-background:new 0 0 480.3 480.3;" xml:space="preserve">
<style type="text/css">
	.st0{fill:#BC955C;}
</style>
<g>
	<g>
		<g>
			<path class="st0" d="M456.1,464.3v-296c0-4.4-3.6-8-8-8h-80c-4.4,0-8,3.6-8,8v296h-16v-184c0-4.4-3.6-8-8-8h-80c-4.4,0-8,3.6-8,8
				v184h-16v-264c0-4.4-3.6-8-8-8h-80c-4.4,0-8,3.6-8,8v264h-16v-152c0-4.4-3.6-8-8-8h-80c-4.4,0-8,3.6-8,8v152h-24v16h480v-16
				H456.1z M104.1,464.3h-64v-144h64V464.3z M216.1,464.3h-64v-256h64V464.3z M328.1,464.3h-64v-176h64V464.3z M440.1,464.3h-64
				v-288h64V464.3z"/>
			<path class="st0" d="M50.1,217.6c6.5,4.3,14.2,6.6,22.1,6.6c22.1,0,40-17.9,40-40c0-7.8-2.3-15.5-6.6-22.1l56.6-56.6
				c6.5,4.3,14.1,6.7,21.9,6.7c2.4,0,4.7-0.2,7-0.6c7.6-1.3,14.7-4.9,20.3-10.1l47.5,36.5c-7.9,20.6,2.4,43.8,23,51.7
				s43.8-2.4,51.7-23c4.6-12.1,3.1-25.7-4-36.5l56.6-56.6c18.5,12.2,43.4,7.2,55.6-11.3c12.2-18.5,7.2-43.4-11.3-55.6
				C411.9-5.6,387-0.5,374.8,18c-8.9,13.4-8.9,30.9,0,44.3l-56.6,56.6c-15.9-10.5-36.9-8.4-50.3,5.1c-0.2,0.2-0.2,0.3-0.4,0.5
				l-46.8-36c9-20.2-0.1-43.8-20.3-52.8s-43.8,0.1-52.8,20.3c-5.6,12.5-4.4,26.9,3.2,38.3l-56.6,56.6c-18.4-12.2-43.2-7.1-55.4,11.3
				C26.6,180.6,31.6,205.4,50.1,217.6z M408.1,16.3c13.3,0,24,10.7,24,24s-10.7,24-24,24s-24-10.7-24-24S394.9,16.3,408.1,16.3z
				 M279.1,135.3c4.5-4.5,10.6-7,17-7c13.3,0,24,10.7,24,24c0,6.4-2.5,12.5-7,17c-9.5,9.1-24.4,9.1-33.9,0
				C269.8,159.9,269.8,144.7,279.1,135.3z M164.5,58.5C164.5,58.5,164.5,58.5,164.5,58.5c3.6-5.2,9.2-8.8,15.5-9.9
				c1.4-0.2,2.8-0.4,4.2-0.4c4.9,0,9.7,1.5,13.7,4.3c10.9,7.6,13.5,22.6,5.9,33.4s-22.6,13.5-33.4,5.9
				C159.5,84.3,156.9,69.3,164.5,58.5z M55.1,167.3C55.2,167.3,55.2,167.3,55.1,167.3c9.4-9.4,24.6-9.4,34,0
				c9.4,9.4,9.4,24.6,0,33.9c-9.5,9.1-24.4,9.1-33.9,0C45.8,191.9,45.8,176.7,55.1,167.3z"/>
		</g>
	</g>
</g>
</svg>
