<?xml version="1.0" encoding="utf-8"?>
<!-- Generator: Adobe Illustrator 26.3.0, SVG Export Plug-In . SVG Version: 6.00 Build 0)  -->
<svg version="1.1" id="Layer_1" xmlns="http://www.w3.org/2000/svg" xmlns:xlink="http://www.w3.org/1999/xlink" x="0px" y="0px"
	 viewBox="0 0 512 512" style="enable-background:new 0 0 512 512;" xml:space="preserve">
<style type="text/css">
	.st0{fill:#BC955C;}
</style>
<g>
	<g>
		<g>
			<path class="st0" d="M397.6,218c-0.4-0.8-4-7.1-8.7-11c-1.4-1.2-5.1-3.2-5.1-3.2c-4.1-2-8.5-3.1-13.1-3.1h-48.2
				c-5.5,0-10,4.5-10,10c0,5.5,4.5,10,10,10h48.2c3.7,0,6.3,2.1,7.8,4c1.2,1.6,1.8,4.1,1.8,5.5c0,5.5,4.5,10,10,10s10-4.5,10-10
				C400.3,226,399.4,221.8,397.6,218z"/>
		</g>
	</g>
	<g id="SVGCleanerId_0">
		<g>
			<path class="st0" d="M397.6,218c-0.4-0.8-4-7.1-8.7-11c-1.4-1.2-5.1-3.2-5.1-3.2c-4.1-2-8.5-3.1-13.1-3.1h-48.2
				c-5.5,0-10,4.5-10,10c0,5.5,4.5,10,10,10h48.2c3.7,0,6.3,2.1,7.8,4c1.2,1.6,1.8,4.1,1.8,5.5c0,5.5,4.5,10,10,10s10-4.5,10-10
				C400.3,226,399.4,221.8,397.6,218z"/>
		</g>
	</g>
	<g>
		<g>
			<path class="st0" d="M511.6,289.9l-14.6-48.4v-8.2c0-44.1-35.9-79.9-79.9-79.9H233.3c8.1-4.5,15.1-11.2,19.9-19.5
				c1.8-3.1,1.8-6.9,0-10.1c-9.3-16-26.6-26-45.1-26c-11.5,0-22.3,3.7-31.3,10.4c-0.5-0.5-1-0.9-1.6-1.4c11-9.7,18-23.9,18-39.7
				c0-5.6-4.5-10-10-10s-10,4.5-10,10c0,18.1-14.7,32.8-32.8,32.8h-26.2c-18.1,0-32.8-14.7-32.8-32.8c0-5.6-4.5-10-10-10
				c-5.5,0-10,4.5-10,10c0,15.8,7,30,18,39.7c-0.5,0.4-1.1,0.9-1.6,1.3c-8.9-6.7-19.8-10.4-31.3-10.4c-18.5,0-35.8,10-45.1,26
				c-1.8,3.1-1.8,6.9,0,10c9.3,16.1,26.5,26,45.1,26c8.4,0,16.6-2,24-5.9l6.6,47.8c-7.9,4.9-13.2,13.7-13.2,23.6v8.7
				c0,15.3,12.5,27.8,27.8,27.8h5.2v7.6c0,24.4,11.4,47,30.8,61.5l9.4,114.4c0.4,5.2,4.8,9.2,10,9.2h71c5.2,0,9.6-4,10-9.2l8.1-99.1
				h31c0.9,1.8,2,3.5,3,5.2v26.9c0,5.6,4.5,10,10,10c5.6,0,10-4.5,10-10v-6.3c4.7,3.2,9.7,5.8,15,7.8v16.4c0,5.5,4.5,10,10,10
				c5.5,0,10-4.5,10-10v-12c1.8,0.1,12.2,0,15.6-0.5l-0.9,60.6c0,2.7,1,5.3,2.9,7.2c1.9,1.9,4.5,3,7.1,3h72.9c4.9,0,9.1-3.6,9.9-8.4
				l14.6-90.3c0.1-0.5,0.1-1.1,0.1-1.6V230.3c0-11.1-2.3-21.9-7-32c-1-2.2-5.9-10.7-7.3-12.6c-3.1-4.3-6.6-8.3-10.5-11.9
				c30.3,2.9,54.2,28.5,54.2,59.6v8.2l-14.6,48.4c-0.9,3-0.4,6.3,1.5,8.9c1.9,2.5,4.9,4.1,8.1,4.1H502c3.2,0,6.2-1.5,8.1-4.1
				C511.9,296.2,512.5,293,511.6,289.9z M67.6,131.9c-5.8,5.1-13.3,8-21.1,8c-9.3,0-18.1-4.1-24.1-11c6-6.9,14.8-11,24.1-11
				c8.1,0,15.7,3,21.5,8.3C67.7,128.2,67.5,130,67.6,131.9z M208.1,118c9.3,0,18.1,4.1,24.1,11c-6,6.9-14.8,11-24.1,11
				c-7.8,0-15.3-2.9-21.1-8c0-1.9-0.1-3.7-0.4-5.6C192.4,121,200,118,208.1,118z M90.4,124c2.2-2.5,5.2-3.8,8.4-3.8h56.9
				c3.3,0,6.3,1.4,8.4,3.8c2.1,2.5,3.1,5.6,2.6,8.9l-1.9,13.6c-1.8-2.2-4.5-3.7-7.6-3.7c-5.3,0-9.7,4.3-9.7,9.7s4.3,9.7,9.7,9.7
				c2.1,0,4.1-0.7,5.7-1.8v0l-5.2,37.4H96.7l-5.2-37.4v0c1.6,1.2,3.6,1.9,5.7,1.9c5.3,0,9.7-4.3,9.7-9.7s-4.3-9.7-9.7-9.7
				c-3.1,0-5.8,1.4-7.6,3.7l-1.9-13.6C87.3,129.7,88.2,126.5,90.4,124z M91.6,241.9c-4.2,0-7.7-3.5-7.7-7.7v-8.7
				c0-4.2,3.5-7.7,7.7-7.7h71.3c4.2,0,7.7,3.5,7.7,7.7v8.7c0,4.2-3.5,7.7-7.7,7.7H91.6z M156.1,434.6l-7.6-92.4
				c5.2,1.8,10.7,3,16.2,3.7l7.3,88.7H156.1z M347.7,361.7c-5.4,1.9-11.2,2.9-17,2.9c-15.5,0-29.8-6.8-39.5-18.1h54.5
				c3.7,3.9,7.8,7.4,12.2,10.4C354.7,358.8,351.3,360.4,347.7,361.7z M376.1,434.6h-16l0.8-56.7c5.8-2.7,11.2-6.1,16.1-10.3
				L376.1,434.6z M427.4,230.3v123.3l-13.1,81h-18.1l1.1-76.1c0.1-4.9-3.4-9.1-8.1-10c-3.2-0.6-6.4-1.6-9.6-2.8
				c-8.4-3.3-15.9-8.8-21.7-15.8c-1.9-2.3-4.7-3.6-7.7-3.6H226.8c-5.2,0-9.6,4-10,9.2l-8.1,99.1h-16.5l-8.1-99.1
				c-0.4-5.2-4.8-9.2-10-9.2H174c-0.2,0-0.3,0-0.5,0c-11,0-21.7-3.2-30.9-9.2c-16.2-10.5-25.8-28.3-25.8-47.6V262h46.1
				c15.3,0,27.8-12.5,27.8-27.8v-8.7c0-10-5.3-18.7-13.2-23.6l4-28.8c0.9,0.3,189.2,0.4,189.2,0.4c10.8,0,21.3,3.9,25.2,5.9
				c0.1,0,11.2,4.9,21,17.9C424.1,207,427.4,222,427.4,230.3z M482.1,285.1l4.8-15.8l4.8,15.8H482.1z"/>
		</g>
	</g>
	<g>
		<g>
			<path class="st0" d="M397.6,218c-0.4-0.8-4-7.1-8.7-11c-1.4-1.2-5.1-3.2-5.1-3.2c-4.1-2-8.5-3.1-13.1-3.1h-48.2
				c-5.5,0-10,4.5-10,10c0,5.5,4.5,10,10,10h48.2c3.7,0,6.3,2.1,7.8,4c1.2,1.6,1.8,4.1,1.8,5.5c0,5.5,4.5,10,10,10s10-4.5,10-10
				C400.3,226,399.4,221.8,397.6,218z"/>
		</g>
	</g>
</g>
</svg>
