<?xml version="1.0" encoding="utf-8"?>
<!-- Generator: Adobe Illustrator 26.3.0, SVG Export Plug-In . SVG Version: 6.00 Build 0)  -->
<svg version="1.1" id="Capa_1" xmlns="http://www.w3.org/2000/svg" xmlns:xlink="http://www.w3.org/1999/xlink" x="0px" y="0px"
	 viewBox="0 0 480 480" style="enable-background:new 0 0 480 480;" xml:space="preserve">
<style type="text/css">
	.st0{fill:#BC955C;}
</style>
<g>
	<g>
		<path class="st0" d="M472,88h-32V48c0-4.4-3.6-8-8-8c-0.2,0-0.5,0-0.7,0l-20.9,1.8C359.8,46,310.2,58.1,263.3,77.6L240,87.3
			l-23.3-9.7C169.8,58.1,120.2,46,69.6,41.8L48.7,40c-4.4-0.4-8.3,2.9-8.6,7.3c0,0.2,0,0.5,0,0.7v40H8c-4.4,0-8,3.6-8,8v336
			c0,4.4,3.6,8,8,8h464c4.4,0,8-3.6,8-8V96C480,91.6,476.4,88,472,88z M16,424V104h24v280c0,4.2,3.2,7.6,7.3,8l21.5,1.8
			c5.9,0.5,11.7,1.1,17.6,1.8c2,0.2,3.9,0.5,5.9,0.8c3.9,0.5,7.8,1,11.6,1.7c2.3,0.4,4.6,0.8,6.9,1.2c3.5,0.6,7,1.2,10.5,1.9
			c2.4,0.5,4.8,1,7.2,1.5c3.4,0.7,6.7,1.5,10.1,2.3c2.4,0.6,4.8,1.2,7.3,1.8c3.3,0.8,6.6,1.7,9.9,2.6c2.4,0.7,4.8,1.4,7.2,2.1
			c3.3,1,6.5,2,9.8,3c2.4,0.8,4.8,1.5,7.1,2.3c3.3,1.1,6.5,2.2,9.8,3.4c2.3,0.8,4.6,1.7,6.9,2.5c1,0.4,2,0.8,3,1.2L16,424L16,424z
			 M232,420l-14.8-6.2c-46.8-19.6-96.4-31.8-147-36L56,376.7v-320l12.2,1c49,4,97,15.8,142.3,34.7l21.5,8.9V420z M248,420V101.3
			l21.5-8.9c45.3-18.9,93.3-30.6,142.3-34.7l12.2-1v319.9l-13.1,1.1c-50.6,4.2-100.3,16.3-147.2,35.8L248,420z M464,424H280.6
			c1.1-0.4,2.2-0.9,3.3-1.3c2.4-0.9,4.8-1.8,7.3-2.7c3.1-1.1,6.3-2.2,9.4-3.3c2.5-0.8,4.9-1.6,7.4-2.4c3.2-1,6.3-2,9.5-2.9
			c2.5-0.7,5-1.5,7.5-2.2c3.2-0.9,6.4-1.7,9.7-2.6c2.5-0.6,5-1.3,7.5-1.9c3.3-0.8,6.7-1.5,10-2.2c2.4-0.5,4.8-1.1,7.2-1.5
			c3.5-0.7,7.1-1.3,10.6-1.9c2.3-0.4,4.6-0.8,6.9-1.2c3.9-0.6,7.9-1.2,11.9-1.7c1.9-0.2,3.8-0.6,5.7-0.8c5.9-0.7,11.8-1.3,17.7-1.8
			l20.5-1.7c4.2-0.3,7.4-3.8,7.3-8V104h24L464,424L464,424z"/>
	</g>
</g>
</svg>
