<?xml version="1.0" encoding="utf-8"?>
<!-- Generator: Adobe Illustrator 26.3.0, SVG Export Plug-In . SVG Version: 6.00 Build 0)  -->
<svg version="1.1" id="Capa_1" xmlns="http://www.w3.org/2000/svg" xmlns:xlink="http://www.w3.org/1999/xlink" x="0px" y="0px"
	 viewBox="0 0 512 512" style="enable-background:new 0 0 512 512;" xml:space="preserve">
<style type="text/css">
	.st0{fill:#BC955C;}
</style>
<g>
	<path class="st0" d="M286.2,399.7c8.2-7.9,13.3-19,13.3-31.2c0-24-19.5-43.5-43.5-43.5s-43.5,19.5-43.5,43.5
		c0,12.2,5.1,23.3,13.3,31.2c-19.3,6.7-33.3,25.2-33.3,46.8v34c0,17.4,14.1,31.5,31.5,31.5h64c17.4,0,31.5-14.1,31.5-31.5v-34
		C319.5,424.9,305.6,406.5,286.2,399.7z M256,340c15.7,0,28.5,12.8,28.5,28.5S271.7,397,256,397s-28.5-12.8-28.5-28.5
		S240.3,340,256,340z M304.5,480.5c0,9.1-7.4,16.5-16.5,16.5h-64c-9.1,0-16.5-7.4-16.5-16.5v-34c0-19,15.5-34.5,34.5-34.5h28
		c19,0,34.5,15.5,34.5,34.5V480.5z"/>
	<path class="st0" d="M428.2,399.7c8.2-7.9,13.3-19,13.3-31.2c0-24-19.5-43.5-43.5-43.5s-43.5,19.5-43.5,43.5
		c0,12.2,5.1,23.3,13.3,31.2c-19.3,6.7-33.3,25.2-33.3,46.8v34c0,17.4,14.1,31.5,31.5,31.5h17.9c4.1,0,7.5-3.4,7.5-7.5
		s-3.4-7.5-7.5-7.5H366c-9.1,0-16.5-7.4-16.5-16.5v-34c0-19,15.5-34.5,34.5-34.5h28c19,0,34.5,15.5,34.5,34.5v34
		c0,9.1-7.4,16.5-16.5,16.5h-13.9c-4.1,0-7.5,3.4-7.5,7.5s3.4,7.5,7.5,7.5H430c17.4,0,31.5-14.1,31.5-31.5v-34
		C461.5,424.9,447.6,406.5,428.2,399.7z M398,340c15.7,0,28.5,12.8,28.5,28.5S413.7,397,398,397s-28.5-12.8-28.5-28.5
		S382.3,340,398,340z"/>
	<path class="st0" d="M144.2,399.7c8.2-7.9,13.3-19,13.3-31.2c0-24-19.5-43.5-43.5-43.5s-43.5,19.5-43.5,43.5
		c0,12.2,5.1,23.3,13.3,31.2c-19.3,6.7-33.3,25.2-33.3,46.8v34c0,17.4,14.1,31.5,31.5,31.5h64c17.4,0,31.5-14.1,31.5-31.5v-34
		C177.5,424.9,163.6,406.5,144.2,399.7z M114,340c15.7,0,28.5,12.8,28.5,28.5S129.7,397,114,397s-28.5-12.8-28.5-28.5
		S98.3,340,114,340z M162.5,480.5c0,9.1-7.4,16.5-16.5,16.5H82c-9.1,0-16.5-7.4-16.5-16.5v-34c0-19,15.5-34.5,34.5-34.5h28
		c19,0,34.5,15.5,34.5,34.5V480.5z"/>
	<path class="st0" d="M199.4,280.6c0-4.1-3.4-7.5-7.5-7.5h-21.5v-14.2c0-15.7,12.8-28.6,28.6-28.6h34.6v11.1c0,9.9,8,17.9,17.9,17.9
		h9.2c9.9,0,17.9-8,17.9-17.9v-11.1H313c15.7,0,28.6,12.8,28.6,28.6v14.2H224.1c-4.1,0-7.5,3.4-7.5,7.5s3.4,7.5,7.5,7.5h24.5v15.5
		c0,4.1,3.4,7.5,7.5,7.5s7.5-3.4,7.5-7.5v-15.5h127v15.5c0,4.1,3.4,7.5,7.5,7.5s7.5-3.4,7.5-7.5v-23c0-4.1-3.4-7.5-7.5-7.5h-41.4
		v-14.2c0-24-19.5-43.6-43.6-43.6h-34.5v-14.2c23.1-7.3,41.4-25.6,48.6-48.7c1.3,0.3,2.7,0.4,4,0.4c14,0,24.4-17.4,24.4-33
		c0-12.2-6.3-20.4-14.3-24c2.1-8.4,4.3-22.4,1.3-37.6c-1.4-7.1-3.2-13.2-5.6-18.6c-1.7-3.8-6.1-5.5-9.9-3.8s-5.5,6.1-3.8,9.9
		c1.9,4.4,3.5,9.5,4.6,15.4c2.8,14.7-0.3,28.4-2,34.3c-4.1,2.4-6.8,6.6-8.4,11.5c-10-16.7-28.1-23.5-45.6-30.2
		c-14.9-5.6-28.9-10.9-38-21.7c-7.1-8.5-14.7-7.6-18.6-6.4c-11.4,3.6-18.9,19.7-19.7,29.3l-0.1,1.3c-0.8,10.1-1.6,18-2.3,23.8
		c-1.6-3.2-3.9-5.9-6.9-7.6c-1.7-5.9-4.9-19.6-2-34.3c2.8-14.7,8-24.5,16.7-31.7C212.4,19.8,231,15,256,15
		c21.5,0,38.3,3.6,49.8,10.6c3.5,2.2,8.2,1,10.3-2.5c2.2-3.5,1-8.2-2.5-10.3C299.5,4.2,280.6,0,256,0c-29,0-50.2,5.8-64.7,17.8
		c-15,12.4-19.7,29.1-21.9,40.5c-2.9,15.1-0.7,29.2,1.3,37.6c-7.9,3.7-14.3,11.9-14.3,24c0,15.6,10.4,33,24.4,33
		c1.4,0,2.7-0.1,4-0.4c7.3,23.1,25.5,41.4,48.6,48.7v14.2H199c-24,0-43.6,19.5-43.6,43.6v14.2H114c-4.1,0-7.5,3.4-7.5,7.5v23
		c0,4.1,3.4,7.5,7.5,7.5s7.5-3.4,7.5-7.5v-15.5h70.4C196,288.1,199.4,284.8,199.4,280.6L199.4,280.6z M263.5,241.5
		c0,1.6-1.3,2.9-2.9,2.9h-9.2c-1.6,0-2.9-1.3-2.9-2.9v-11.1h15L263.5,241.5L263.5,241.5z M331.1,137.9c-0.3,0-0.7-0.1-1-0.1
		c0.3-2.5,0.4-5,0.4-7.6v-11c0-0.1,0-0.1,0-0.2c0-3.8,1.2-8.7,2.4-10.2c3.8,0.7,7.6,4,7.6,11.1C340.5,129.4,334.2,137.9,331.1,137.9
		L331.1,137.9z M180.9,137.9c-3,0-9.4-8.5-9.4-18c0-7.1,3.8-10.3,7.6-11.1c1.1,1.4,2.4,6,2.4,10.2c0,0.1,0,0.1,0,0.2v11
		c0,2.6,0.1,5.1,0.4,7.6C181.5,137.8,181.2,137.9,180.9,137.9L180.9,137.9z M196.5,130.1V127c3-0.6,5.8-2.3,7.6-5.3
		c2.4-4,3.9-13.6,6.2-41.2l0.1-1.3c0.5-6,5.7-15.1,9.3-16.3c0.7-0.2,2,1.2,2.5,1.8c11.6,13.9,28.2,20.1,44.2,26.1
		c18.6,7,34.7,13.1,40.8,29.6c1,2.8,3.1,5,5.8,6.1c0.8,0.4,1.7,0.6,2.5,0.8v2.9c0,32.8-26.7,59.5-59.6,59.5
		C223.2,189.6,196.5,162.9,196.5,130.1z M256,204.6c2.5,0,5-0.1,7.5-0.4v10.2h-15v-10.2C251,204.5,253.5,204.6,256,204.6z"/>
</g>
</svg>
