<?xml version="1.0"?>
<svg xmlns="http://www.w3.org/2000/svg" id="Capa_1" enable-background="new 0 0 512 512" height="512px" viewBox="0 0 512 512" width="512px"><g><path d="m286.243 399.738c8.171-7.913 13.257-18.992 13.257-31.238 0-23.986-19.514-43.5-43.5-43.5s-43.5 19.514-43.5 43.5c0 12.246 5.086 23.325 13.257 31.238-19.34 6.737-33.257 25.155-33.257 46.762v34c0 17.369 14.131 31.5 31.5 31.5h64c17.369 0 31.5-14.131 31.5-31.5v-34c0-21.607-13.917-40.025-33.257-46.762zm-30.243-59.738c15.715 0 28.5 12.785 28.5 28.5s-12.785 28.5-28.5 28.5-28.5-12.785-28.5-28.5 12.785-28.5 28.5-28.5zm48.5 140.5c0 9.098-7.402 16.5-16.5 16.5h-64c-9.098 0-16.5-7.402-16.5-16.5v-34c0-19.023 15.477-34.5 34.5-34.5h28c19.023 0 34.5 15.477 34.5 34.5z" data-original="#000000" class="active-path" data-old_color="#000000" fill="#092432"/><path d="m428.243 399.738c8.171-7.913 13.257-18.992 13.257-31.238 0-23.986-19.514-43.5-43.5-43.5s-43.5 19.514-43.5 43.5c0 12.246 5.086 23.325 13.257 31.238-19.34 6.737-33.257 25.155-33.257 46.762v34c0 17.369 14.131 31.5 31.5 31.5h17.865c4.143 0 7.5-3.357 7.5-7.5s-3.357-7.5-7.5-7.5h-17.865c-9.098 0-16.5-7.402-16.5-16.5v-34c0-19.023 15.477-34.5 34.5-34.5h28c19.023 0 34.5 15.477 34.5 34.5v34c0 9.098-7.402 16.5-16.5 16.5h-13.949c-4.143 0-7.5 3.357-7.5 7.5s3.357 7.5 7.5 7.5h13.949c17.369 0 31.5-14.131 31.5-31.5v-34c0-21.607-13.917-40.025-33.257-46.762zm-30.243-59.738c15.715 0 28.5 12.785 28.5 28.5s-12.785 28.5-28.5 28.5-28.5-12.785-28.5-28.5 12.785-28.5 28.5-28.5z" data-original="#000000" class="active-path" data-old_color="#000000" fill="#092432"/><path d="m144.243 399.738c8.171-7.913 13.257-18.992 13.257-31.238 0-23.986-19.514-43.5-43.5-43.5s-43.5 19.514-43.5 43.5c0 12.246 5.086 23.325 13.257 31.238-19.34 6.737-33.257 25.155-33.257 46.762v34c0 17.369 14.131 31.5 31.5 31.5h64c17.369 0 31.5-14.131 31.5-31.5v-34c0-21.607-13.917-40.025-33.257-46.762zm-30.243-59.738c15.715 0 28.5 12.785 28.5 28.5s-12.785 28.5-28.5 28.5-28.5-12.785-28.5-28.5 12.785-28.5 28.5-28.5zm48.5 140.5c0 9.098-7.402 16.5-16.5 16.5h-64c-9.098 0-16.5-7.402-16.5-16.5v-34c0-19.023 15.477-34.5 34.5-34.5h28c19.023 0 34.5 15.477 34.5 34.5z" data-original="#000000" class="active-path" data-old_color="#000000" fill="#092432"/><path d="m199.365 280.64c0-4.143-3.357-7.5-7.5-7.5h-21.468v-14.206c0-15.746 12.81-28.556 28.555-28.556h34.57v11.136c0 9.869 8.029 17.898 17.898 17.898h9.202c9.87 0 17.899-8.029 17.899-17.898v-11.136h34.525c15.745 0 28.555 12.81 28.555 28.556v14.206h-117.55c-4.143 0-7.5 3.357-7.5 7.5s3.357 7.5 7.5 7.5h24.472v15.536c0 4.143 3.357 7.5 7.5 7.5s7.5-3.357 7.5-7.5v-15.536h126.977v15.536c0 4.143 3.357 7.5 7.5 7.5s7.5-3.357 7.5-7.5v-23.036c0-4.143-3.357-7.5-7.5-7.5h-41.397v-14.206c0-24.017-19.538-43.556-43.555-43.556h-34.548v-14.217c23.096-7.319 41.354-25.615 48.622-48.734 1.321.293 2.666.443 4.018.443 13.96 0 24.391-17.417 24.391-32.99 0-12.174-6.318-20.353-14.264-24.039 2.06-8.391 4.265-22.434 1.347-37.567-1.362-7.068-3.194-13.161-5.601-18.628-1.669-3.792-6.095-5.512-9.886-3.843s-5.512 6.095-3.843 9.886c1.948 4.427 3.453 9.472 4.601 15.425 2.826 14.651-.331 28.447-2.046 34.323-4.14 2.368-6.847 6.639-8.443 11.461-9.961-16.732-28.065-23.541-45.648-30.154-14.869-5.592-28.914-10.874-38.037-21.722-7.11-8.454-14.681-7.646-18.559-6.409-11.435 3.644-18.914 19.664-19.713 29.34l-.106 1.288c-.834 10.051-1.603 18.01-2.301 23.837-1.62-3.209-3.874-5.931-6.884-7.649-1.726-5.852-4.879-19.555-2.032-34.315 2.841-14.742 8.004-24.532 16.739-31.746 11.544-9.534 30.098-14.368 55.145-14.368 21.507 0 38.251 3.551 49.768 10.554 3.535 2.151 8.151 1.027 10.305-2.512 2.152-3.539 1.027-8.152-2.512-10.305-14.095-8.571-32.923-12.737-57.561-12.737-29.028 0-50.19 5.822-64.696 17.8-15.049 12.426-19.716 29.051-21.917 40.474-2.919 15.133-.713 29.177 1.347 37.567-7.946 3.686-14.264 11.865-14.264 24.039 0 15.573 10.431 32.99 24.391 32.99 1.352 0 2.697-.15 4.018-.443 7.265 23.104 25.513 41.392 48.622 48.72v14.231h-34.548c-24.017 0-43.555 19.539-43.555 43.556v14.206h-41.398c-4.143 0-7.5 3.357-7.5 7.5v23.036c0 4.143 3.357 7.5 7.5 7.5s7.5-3.357 7.5-7.5v-15.536h70.365c4.143 0 7.5-3.358 7.5-7.5zm64.157-39.126c0 1.599-1.301 2.898-2.899 2.898h-9.202c-1.599 0-2.898-1.3-2.898-2.898v-11.136h15v11.136zm67.618-103.644c-.342 0-.675-.05-.994-.138.255-2.5.385-5.037.385-7.603v-10.956c.002-.07.004-.141.004-.212.012-3.807 1.221-8.719 2.427-10.181 3.753.747 7.57 3.953 7.57 11.099-.002 9.479-6.38 17.991-9.392 17.991zm-150.28 0c-3.013 0-9.391-8.512-9.391-17.99 0-7.143 3.813-10.35 7.565-11.098 1.121 1.383 2.393 5.974 2.431 10.18 0 .07.002.14.004.209v10.958c0 2.566.13 5.103.385 7.603-.319.088-.651.138-.994.138zm15.61-7.74v-3.099c3.034-.647 5.787-2.312 7.644-5.336 2.435-3.974 3.875-13.603 6.167-41.213l.107-1.289c.496-6.009 5.721-15.142 9.317-16.288.724-.229 2.01 1.159 2.524 1.771 11.649 13.853 28.217 20.082 44.237 26.107 18.637 7.009 34.732 13.062 40.772 29.571 1.018 2.781 3.067 4.962 5.772 6.14.826.36 1.672.607 2.519.766v2.87c0 32.803-26.688 59.49-59.57 59.49-32.802 0-59.489-26.687-59.489-59.49zm59.57 74.49c2.517 0 5.006-.126 7.46-.371v10.171h-15v-10.177c2.48.249 4.995.377 7.54.377z" data-original="#000000" class="active-path" data-old_color="#000000" fill="#092432"/></g> </svg>
