<?xml version="1.0" encoding="utf-8"?>
<!-- Generator: Adobe Illustrator 26.3.0, SVG Export Plug-In . SVG Version: 6.00 Build 0)  -->
<svg version="1.1" id="Layer_1" xmlns="http://www.w3.org/2000/svg" xmlns:xlink="http://www.w3.org/1999/xlink" x="0px" y="0px"
	 viewBox="0 0 512 512" style="enable-background:new 0 0 512 512;" xml:space="preserve">
<style type="text/css">
	.st0{fill:#BC955C;}
</style>
<g>
	<g>
		<g>
			<path class="st0" d="M472.3,355.1c-8.7-65-64.6-115.3-131.9-115.3H226.1c1.9-4.3,3.6-8.8,5.1-13.4c2-6,3-12.2,3-18.5
				c0-4.8-0.6-9.6-1.7-14.3c13.7-9.1,27.7-20.7,40.9-33.9c20.2-20.2,36.4-42.1,45.7-61.6c14-29.3,8.2-44.1,1-51.4
				c-7.3-7.3-22.1-13-51.4,1c-3,1.4-6.1,3.1-9.3,4.8c-0.2-24.4-7.3-40.1-20.9-45c-29-10.5-63.5,37.4-82.6,90.2
				c-5.3,14.5-9.3,29.3-11.9,43.2C84.8,148,36.5,186.4,17.9,242.8c-2,6-3,12.2-3,18.5c0,26.9,17.5,52,42.4,62.7
				c-6.1,15.5-9.3,31.9-9.3,48.9c0,20.2,4.5,39.8,13.2,57.8H37.7C16.9,430.7,0,447.6,0,468.3C0,489.1,16.9,506,37.7,506l302.8,0
				c35.5,0,69-13.8,94.1-39c6.9-6.9,12.9-14.4,18-22.4c4.3,1.3,8.8,2,13.4,2c25.4,0,46-20.6,46-46
				C512,377.4,494.7,358.2,472.3,355.1z M175.8,104.9c20.6-56.9,48.2-80.1,55.5-77.5c3.4,1.2,9,12.5,6.3,39.5
				c-10.3,7.7-20.6,16.6-30.5,26.5c-15.1,15.1-27.9,31-37.4,46.4c-1-0.1-3.6-0.1-3.9-0.1C168.2,128.4,171.6,116.6,175.8,104.9z
				 M438.6,426.9c-5,9.1-11.4,17.6-18.9,25.2c-21.1,21.1-49.3,32.8-79.1,32.8H224.2v0c-9.1,0-16.5-7.4-16.5-16.5
				c0-9.1,7.4-16.5,16.5-16.5H272c5.8,0,10.6-4.7,10.6-10.6v-17.9c0-29.5,24-53.5,53.5-53.5h14c5.8,0,10.6-4.7,10.6-10.6
				c0-5.9-4.7-10.6-10.6-10.6h-14c-41.2,0-74.7,33.5-74.7,74.7v7.3h-37.3c-20.8,0-37.7,16.9-37.7,37.7c0,5.9,1.4,11.5,3.8,16.5H37.7
				c-9.1,0-16.5-7.4-16.5-16.5c0-9.1,7.4-16.5,16.5-16.5h41.7c2,0,4.1-0.6,5.9-1.8c4.8-3.3,6.1-9.8,2.9-14.7
				c-12.4-18.5-19-40.1-19-62.4c0-17.8,4-34.7,12-50.5c2.6-5.2,0.6-11.6-4.7-14.2c-0.8-0.4-1.7-0.7-2.5-0.9
				c-10.6-2.4-20.1-8.6-26.9-16.9c-6.8-8.3-11-18.6-11-29.2c0-4.1,0.6-8.1,1.9-11.9c8.8-26.5,25.2-48.8,47.5-64.5
				c22.4-15.7,49.6-24.1,78.7-24.1c0.8,0,6.9,0.3,9.3,0.7c4.6,0.8,8.9-1.4,11.1-5.2l0,0c8.7-15.4,22-32.5,37.5-48
				c10.3-10.3,21-19.4,31.4-26.9c0.2-0.1,0.4-0.3,0.6-0.5c8.1-5.8,16.2-10.6,23.7-14.2c16.1-7.7,25.2-7.3,27.3-5.1
				c2.2,2.2,2.6,11.2-5.1,27.3c-8.3,17.5-23.1,37.3-41.6,55.8c-13.8,13.8-28.3,25.5-42.3,34.2l0.1,0.2c-4.2,1.6-6.8,5.6-6.8,9.9
				c0,1.2,0.2,2.5,0.7,3.8c1.9,5,2.9,10.1,2.9,15.2c0,4.1-0.6,8.1-1.9,11.9c-2.9,8.9-6.8,17.4-11.4,25.2c-3,5-1.3,11.5,3.8,14.5
				c1.7,1,3.5,1.5,5.4,1.5h131.6c61.7,0,111.9,50.2,111.9,111.9C452.4,399.1,438.7,426.5,438.6,426.9z M466,425.5
				c-1,0-2.1-0.1-3.1-0.2c6.5-15.1,10.1-31.4,10.6-48.3c10.1,3.2,17.4,12.6,17.4,23.7C490.8,414.3,479.7,425.5,466,425.5z"/>
		</g>
	</g>
	<g>
		<g>
			<circle class="st0" cx="102.3" cy="223.5" r="12.8"/>
		</g>
	</g>
	<g>
		<g>
			<path class="st0" d="M340.5,276.8c-5.8,0-10.6,4.7-10.6,10.6c0,5.8,4.7,10.6,10.6,10.6c41.3,0,74.9,33.6,74.9,74.9
				c0,5.8,4.7,10.6,10.6,10.6s10.6-4.7,10.6-10.6C436.5,319.9,393.4,276.8,340.5,276.8z"/>
		</g>
	</g>
</g>
</svg>
