<?xml version="1.0" encoding="utf-8"?>
<!-- Generator: Adobe Illustrator 26.3.0, SVG Export Plug-In . SVG Version: 6.00 Build 0)  -->
<svg version="1.1" id="Capa_1" xmlns="http://www.w3.org/2000/svg" xmlns:xlink="http://www.w3.org/1999/xlink" x="0px" y="0px"
	 viewBox="0 0 512 512" style="enable-background:new 0 0 512 512;" xml:space="preserve">
<style type="text/css">
	.st0{fill:#BC955C;}
</style>
<g>
	<g>
		<path class="st0" d="M149.1,262.3c0-13.8-9.6-22-26.5-22c-6.9,0-11.6,0.7-14,1.3v44.3c2.9,0.7,6.5,0.9,11.3,0.9
			C138,286.8,149.1,277.7,149.1,262.3z"/>
		<path class="st0" d="M253.7,240.8c-7.6,0-12.5,0.7-15.4,1.3v98.1c2.9,0.7,7.6,0.7,11.8,0.7c30.7,0.2,50.7-16.7,50.7-52.5
			C301,257.2,282.8,240.8,253.7,240.8z"/>
		<path class="st0" d="M454,183.1h-12.3v-59.3c0-0.4-0.1-0.7-0.1-1.1c0-2.4-0.8-4.7-2.4-6.5L340.5,3.4c0,0-0.1,0-0.1-0.1
			c-0.6-0.7-1.3-1.2-2-1.7c-0.2-0.1-0.4-0.3-0.7-0.4c-0.6-0.3-1.3-0.6-2-0.8c-0.2-0.1-0.4-0.1-0.5-0.2C334.5,0.1,333.7,0,333,0H90.4
			C79.3,0,70.3,9,70.3,20.1v163.1H58c-15.8,0-28.7,12.8-28.7,28.7v149.2c0,15.8,12.9,28.7,28.7,28.7h12.3v102.2
			c0,11.1,9,20.1,20.1,20.1h331.3c11.1,0,20.1-9,20.1-20.1V389.8H454c15.8,0,28.7-12.9,28.7-28.7V211.8
			C482.7,196,469.9,183.1,454,183.1z M90.4,20.1h232.6v102.7c0,5.5,4.5,10,10,10h88.7v50.3H90.4V20.1z M336.8,287.3
			c0,28.7-10.5,48.5-24.9,60.7c-15.8,13.1-39.8,19.3-69.2,19.3c-17.6,0-30-1.1-38.5-2.2V217.9c12.5-2,28.7-3.1,45.8-3.1
			c28.5,0,46.9,5.1,61.4,16C327,242.3,336.8,260.8,336.8,287.3z M75,365.8V217.9c10.4-1.8,25.1-3.1,45.8-3.1c20.9,0,35.8,4,45.8,12
			c9.6,7.6,16,20,16,34.7c0,14.7-4.9,27.1-13.8,35.6c-11.6,10.9-28.7,15.8-48.7,15.8c-4.4,0-8.5-0.2-11.6-0.7v53.6L75,365.8
			L75,365.8z M421.6,486.5H90.4v-96.7h331.3L421.6,486.5L421.6,486.5z M450.7,243.7h-57.6v34.3H447v27.6h-53.8v60.3h-34V215.9h91.6
			V243.7z"/>
	</g>
</g>
</svg>
