<?xml version="1.0" encoding="utf-8"?>
<!-- Generator: Adobe Illustrator 26.3.0, SVG Export Plug-In . SVG Version: 6.00 Build 0)  -->
<svg version="1.1" id="Capa_1" xmlns="http://www.w3.org/2000/svg" xmlns:xlink="http://www.w3.org/1999/xlink" x="0px" y="0px"
	 viewBox="0 0 512 512" style="enable-background:new 0 0 512 512;" xml:space="preserve">
<style type="text/css">
	.st0{fill:#BC955C;}
</style>
<g>
	<path class="st0" d="M423.5,75.3c-3.9,3.9-3.9,10.2,0,14.1c3.9,3.9,10.2,3.9,14.1,0c3.9-3.9,3.9-10.2,0-14.1
		C433.8,71.4,427.4,71.4,423.5,75.3z"/>
	<path class="st0" d="M423.5,0.1C364.6,2.4,293.1,30.2,236.2,80c-36.5-8-74.9,3.1-101.4,29.6c-11.7,11.7-11.7,30.7,0,42.4l32.5,32.5
		c-20.6,59.3-24.5,122.6-25,155c-17.8-11.8-38.7-18.1-60.5-18.1c-29.4,0-57,11.4-77.8,32.2c-3.9,3.9-3.9,10.2,0,14.1
		c20.8,20.8,48.4,32.2,77.8,32.2c13.3,0,26.1-2.3,38.2-6.8c-4.5,12.1-6.8,25-6.8,38.2c0,29.4,11.4,57,32.2,77.8c2,2,4.5,2.9,7.1,2.9
		s5.1-1,7.1-2.9c20.8-20.8,32.2-48.4,32.2-77.8c0-21.9-6.3-42.7-18.1-60.5c32.3-0.5,95.6-4.4,155-25l32.5,32.5
		c11.7,11.7,30.7,11.7,42.4,0c26.5-26.5,37.6-65,29.6-101.4c43.8-50.1,77.6-121,79.8-188.4c1-30.2-6.2-56-19.2-69.1
		C480.4,6.1,454.2-1.1,423.5,0.1z M148.9,123.7c18.3-18.3,43.4-27.6,68.7-26.2c-16.8,17.4-31,39.7-42.5,66.5l-26.2-26.2
		C145,134,145,127.6,148.9,123.7z M26,360.6c15.8-12.5,35.2-19.3,55.7-19.3s39.9,6.8,55.7,19.3c-15.8,12.5-35.2,19.3-55.7,19.3
		S41.8,373.1,26,360.6z M152.4,487c-12.5-15.8-19.3-35.2-19.3-55.7s6.8-39.9,19.3-55.7c12.5,15.8,19.3,35.2,19.3,55.7
		S164.9,471.2,152.4,487z M389.3,364.1c-3.9,3.9-10.2,3.9-14.1,0l-26.2-26.2c26.8-11.4,49.2-25.7,66.5-42.5
		C416.8,320.7,407.5,345.8,389.3,364.1z M492.9,87.8c-0.9,27.7-8.4,59.4-21.2,89.8c-27.9,6.8-58.4,1.4-84.4-15.2
		c-4.6-3-10.8-1.6-13.8,3c-3,4.6-1.6,10.8,3,13.8c25.6,16.3,55.5,23.7,84.9,20.4c-12.6,24.5-28.2,47.2-46.8,67.8v0
		c-3.6,4-7.4,8-11.2,11.8c-55.3,55.3-162.8,71.8-241.2,71.5c-0.3-78.3,16.1-185.8,71.5-241.2c3.9-3.9,7.9-7.6,11.9-11.2
		c20.5-18.5,43.3-34.2,67.8-46.8c-2.3,20.6,0.6,42.1,8.7,62.2c2.1,5.1,7.9,7.6,13,5.6c5.1-2.1,7.6-7.9,5.6-13
		c-8.5-21.2-10.3-44.1-5.2-65.1c30.1-12.6,61.4-20.1,88.8-21.2c27.8-1.1,47.8,6,55.2,13.4C486.8,40.8,493.8,60.5,492.9,87.8z"/>
	<path class="st0" d="M344.8,137.3c-3.9,3.9-3.9,10.2,0,14.1c3.9,3.9,10.2,3.9,14.1,0c3.9-3.9,3.9-10.2,0-14.1
		C355.1,133.4,348.8,133.4,344.8,137.3z"/>
</g>
</svg>
