<?xml version="1.0" encoding="utf-8"?>
<!-- Generator: Adobe Illustrator 26.3.0, SVG Export Plug-In . SVG Version: 6.00 Build 0)  -->
<svg version="1.1" id="Capa_1" xmlns="http://www.w3.org/2000/svg" xmlns:xlink="http://www.w3.org/1999/xlink" x="0px" y="0px"
	 viewBox="0 0 512 512" style="enable-background:new 0 0 512 512;" xml:space="preserve">
<style type="text/css">
	.st0{fill:#BC955C;}
</style>
<g>
	<path id="XMLID_5_" class="st0" d="M110.5,294c-1.7,1.4-3.8,2.1-5.9,2.1c-2.8,0-5.5-1.2-7.4-3.5l-1.3-1.6c-1.4-1.7-2.1-3.8-2.1-5.9
		c0-2.8,1.2-5.5,3.5-7.4c4.1-3.3,10-2.6,13.3,1.5l1.3,1.6c1.4,1.7,2.1,3.8,2.1,5.9C114.1,289.4,112.9,292.2,110.5,294z M137.5,342.8
		c1.9,2.3,4.6,3.6,7.4,3.6c2.1,0,4.2-0.7,5.9-2.1c2.3-1.9,3.6-4.6,3.6-7.4c0-2.1-0.7-4.2-2.1-5.9l-1.3-1.6
		c-3.3-4.1-9.2-4.7-13.3-1.5c-2.3,1.9-3.6,4.6-3.6,7.4c0,2.1,0.7,4.2,2.1,5.9L137.5,342.8z M133.7,298.6c2.1,0,4.2-0.7,5.9-2.1
		c2.3-1.9,3.5-4.6,3.5-7.4c0-2.1-0.7-4.2-2.1-5.9l-1.3-1.6c-3.3-4.1-9.2-4.7-13.3-1.5c-2.3,1.9-3.5,4.6-3.5,7.4
		c0,2.1,0.7,4.2,2.1,5.9l1.3,1.6C128.2,297.4,130.9,298.6,133.7,298.6z M109.7,324.4c1.9,2.3,4.6,3.5,7.4,3.5c2.1,0,4.2-0.7,5.9-2.1
		c2.3-1.9,3.5-4.6,3.5-7.4c0-2.1-0.7-4.2-2.1-5.9l-1.3-1.6c-3.3-4.1-9.2-4.7-13.3-1.5c-2.3,1.9-3.5,4.6-3.5,7.4
		c0,2.1,0.7,4.2,2.1,5.9L109.7,324.4z M8.2,224.3c-12.9-16-10.3-39.6,5.8-52.4c7.9-6.4,17.8-9.1,27.5-8c1-9.6,5.8-18.7,13.8-25.1
		c16-12.9,39.6-10.3,52.4,5.8c10.8,13.5,10.7,32.3,0.9,45.6l16.7,20.9l7.5-6c2.1-1.7,4.7-2.4,7.4-2c3.7,0.6,7.4,1.4,11.1,2.4
		c5,1.4,8,6.7,6.5,11.7c-1.4,5-6.7,8-11.7,6.5c-1.6-0.5-3.2-0.9-4.9-1.2L76.9,274c-0.1,10.5,2.1,21.6,6.3,32.3
		c1.9,4.9-0.4,10.4-5.3,12.3c-1.2,0.5-2.3,0.7-3.5,0.7c-3.8,0-7.3-2.3-8.8-6c-5.9-14.7-8.5-30.2-7.5-44.7c0.2-2.6,1.5-5.1,3.5-6.7
		l7.5-6L52.5,235C37.3,241.8,19,237.8,8.2,224.3z M48.8,215.3c1.7-1.4,3.8-2.1,5.9-2.1c2.8,0,5.5,1.2,7.4,3.5L84,244l26.5-21.2
		l-21.9-27.3c-1.6-2-2.3-4.5-2-7c0.3-2.5,1.5-4.8,3.5-6.4c7.9-6.3,9.2-17.9,2.8-25.8c-6.3-7.9-17.9-9.2-25.8-2.8
		c-6.2,5-8.5,13.3-5.7,20.7c1.4,3.8,0.2,8.2-3,10.7c-3.2,2.6-7.7,2.8-11.1,0.5c-6.7-4.3-15.3-3.9-21.5,1.1
		c-7.9,6.3-9.2,17.9-2.8,25.8C29.3,220.3,40.9,221.6,48.8,215.3z M203.8,231.4v16.4c0,5.2,4.2,9.5,9.5,9.5s9.5-4.2,9.5-9.5v-16.4
		c0-5.2-4.2-9.5-9.5-9.5S203.8,226.2,203.8,231.4z M310.1,238c-6.9-5.3-14.2-8.1-21.5-8.2c-0.1,0-0.2,0-0.3,0
		c-12.5,0.2-25,8.3-35.1,22.8c-15.3,21.9-25.5,59.1-15.4,87.8c1.4,3.9,5,6.3,8.9,6.3c1,0,2.1-0.2,3.1-0.5c4.9-1.7,7.5-7.1,5.8-12.1
		c-7.6-21.7,0.7-53,13.1-70.7c6.4-9.2,13.6-14.5,19.8-14.7c3.2,0.1,6.6,1.5,10.1,4.3c4.1,3.2,10.1,2.4,13.3-1.7
		C315.1,247.2,314.3,241.2,310.1,238z M376.4,337.3c5.3,0.1,9.6-4,9.7-9.2c0.7-27.7-8.6-59.1-30.8-66.6c-0.1,0-0.2-0.1-0.3-0.1
		c-9.9-3-21.4-0.9-33,6c-21.9,13-41.9,41.4-47.4,67.6c-1.1,5.1,2.2,10.1,7.3,11.2c0.7,0.1,1.3,0.2,2,0.2c4.4,0,8.3-3.1,9.3-7.5
		c4.4-21.1,21-44.8,38.5-55.2c6.8-4,13.1-5.5,17.7-4.2c10.7,3.8,18.4,24.5,17.8,48.2C367,332.8,371.2,337.2,376.4,337.3z M94,116.2
		c1.3,0.6,2.7,1,4.1,1c3.5,0,6.9-2,8.5-5.3c0.4-0.8,5.1-12.8,5.5-13.8c22.2-42.6,64.8-70.8,116.8-77.4
		c54.2-6.9,108.6,11.7,141.9,48.7c3.5,3.9,9.5,4.2,13.4,0.7c3.9-3.5,4.2-9.5,0.7-13.4c-19-21.1-44.1-37.2-72.7-46.7
		c-27.2-9-56.8-11.8-85.7-8.1C168.2,9.3,120.4,41.3,95.3,89.5c-0.5,0.9-5.4,13.5-5.7,14.2C87.4,108.4,89.3,114,94,116.2z
		 M290.9,198.3c3.6,3.8,3.4,9.8-0.4,13.4c-3.8,3.6-9.8,3.4-13.4-0.4c-3.4-3.6-7.7-6-12.4-6.9c-4.4-0.9-7.6-4.8-7.6-9.3v-12.3h-41.7
		v12.3c0,4.5-3.2,8.4-7.6,9.3c-11,2.2-18.9,11.9-18.9,23.1v107c0,5.2-4.2,9.5-9.5,9.5s-9.5-4.2-9.5-9.5v-107
		c0-17.5,10.8-32.9,26.5-39.3v-10.4c-4.5-3.9-7.4-9.6-7.4-16v-12.5c0-11.6,9.5-21.1,21.1-21.1h52.2c11.6,0,21.1,9.5,21.1,21.1v12.5
		c0,6.4-2.9,12.1-7.4,16v10.4C281.6,190.4,286.7,193.8,290.9,198.3z M264.5,149.3c0-1.2-1-2.2-2.2-2.2h-52.2c-1.2,0-2.2,1-2.2,2.2
		v12.5c0,0.9,0.6,1.7,1.3,2c0,0,0.1,0,0.1,0c0.2,0.1,0.5,0.1,0.7,0.1h52.2c0.2,0,0.5,0,0.7-0.1c0,0,0.1,0,0.1,0
		c0.8-0.3,1.3-1.1,1.3-2L264.5,149.3L264.5,149.3z M468.8,340.4c-0.5,21.3-14.3,48.6-37.8,74.9c-22.9,25.6-52.4,47.7-83.6,62.6v24.3
		c0,5.2-4.2,9.5-9.5,9.5h-173c-5.2,0-9.5-4.2-9.5-9.5v-24.3c-31.2-14.9-60.7-37-83.6-62.6c-23.6-26.4-37.3-53.7-37.8-74.9
		c-0.1-3.7,2-7.1,5.3-8.7c3.3-1.6,7.3-1.2,10.2,1.2c4.1,3.4,19.4,11.9,72.5,18.3c36,4.3,82,6.7,129.4,6.7s93.4-2.4,129.4-6.7
		c53.1-6.4,68.4-14.9,72.5-18.3c2.9-2.3,6.8-2.8,10.2-1.2C466.8,333.3,468.9,336.7,468.8,340.4z M328.5,481.3H174.4v11.4h154.1
		L328.5,481.3L328.5,481.3z M446.2,357.3c-52.7,18.4-169,19.5-194.8,19.5s-142.1-1.1-194.8-19.5c3.1,8.3,8,17.4,14.4,26.6
		c0.2,0.2,0.3,0.4,0.5,0.6c1.4,1.7,4.3,4.7,8.5,4.7c3.7,0,7.3-2.4,9.8-6.5c2.7-4.5,8.5-6,13-3.3c4.5,2.7,6,8.5,3.3,13
		c-4.1,6.8-10,11.7-16.7,14.1c6.9,7.4,14.6,14.6,23,21.6c3-3.4,8-4.3,12-1.9c4.5,2.7,6,8.5,3.3,13c-0.1,0.1-0.2,0.3-0.2,0.4
		c12.2,8.6,25.4,16.4,39.4,22.9h169c13.1-6,25.6-13.3,37.2-21.3c-0.4-0.6-0.9-1.3-1.3-2c-2.7-4.5-1.2-10.3,3.3-13
		c4.5-2.7,10.3-1.2,13,3.3c0.1,0.1,0.1,0.2,0.2,0.3c9.3-7.5,17.7-15.4,25.2-23.4c-6.6-2.4-12.3-7.3-16.3-14
		c-2.7-4.5-1.2-10.3,3.3-13c4.5-2.7,10.3-1.2,13,3.3c2.5,4.1,6,6.5,9.8,6.5c3.1,0,5.5-1.6,7-3C437.4,376.1,442.9,366.2,446.2,357.3z
		 M456.3,135.3c-4.5-2.7-10.3-1.2-13,3.3l-1.2,2c-0.9,1.5-1.3,3.2-1.3,4.8c0,3.2,1.7,6.4,4.7,8.2c1.5,0.9,3.2,1.3,4.8,1.3
		c3.2,0,6.4-1.7,8.2-4.7l1.2-2c0.9-1.5,1.3-3.2,1.3-4.8C461,140.2,459.3,137,456.3,135.3z M430.3,153.7c-4.5-2.7-10.3-1.1-13,3.4
		l-1.2,2c-0.9,1.5-1.3,3.2-1.3,4.8c0,3.2,1.7,6.4,4.7,8.2c1.5,0.9,3.2,1.3,4.8,1.3c3.2,0,6.4-1.7,8.2-4.7l1.2-2
		c0.9-1.5,1.3-3.2,1.3-4.8C435,158.6,433.3,155.5,430.3,153.7z M433.9,122.1c-4.5-2.7-10.3-1.2-13,3.3l-1.2,2
		c-0.9,1.5-1.3,3.2-1.3,4.8c0,3.2,1.7,6.4,4.7,8.2c1.5,0.9,3.2,1.3,4.8,1.3c3.2,0,6.4-1.7,8.2-4.7l1.2-2c0.9-1.5,1.3-3.2,1.3-4.8
		C438.5,127,436.9,123.8,433.9,122.1z M511.5,158.9c-11.5,35-29.2,73.2-51.1,110.5c-9.4,15.9-19.3,31.3-29.6,45.8
		c-1.8,2.6-4.8,4-7.7,4c-1.9,0-3.8-0.6-5.5-1.7c-4.3-3-5.3-8.9-2.2-13.2c10-14,19.6-29,28.7-44.4c17.9-30.3,32.8-61.2,43.7-90.3
		c-2.6,1-5.3,2.1-8,3.3c-0.3,0.2-0.6,0.3-0.9,0.4c-26.2,12.2-59.2,37.7-92,71.6c-0.9,2.7-1.9,5.5-2.9,8.3c-1.8,4.9-7.2,7.5-12.1,5.7
		c-4.9-1.8-7.5-7.2-5.7-12.1c1.2-3.3,2.3-6.5,3.4-9.7c0-0.1,0.1-0.3,0.1-0.4c16-47,24.6-90.2,24.3-120.5c0-0.4,0-0.7,0-1.1
		c0-0.6,0-1.2,0-1.8c-18.8,23.3-37.3,50.2-54.2,79c-5.1,8.6-10,17.4-14.7,26.1c-2.5,4.6-8.2,6.4-12.8,3.9c-4.6-2.5-6.4-8.2-3.9-12.8
		c4.8-8.9,9.9-17.9,15.1-26.8c21.7-36.8,45.9-70.7,70-98.2c2.3-2.6,5.9-3.8,9.3-3c3.4,0.8,6.1,3.4,7,6.8c0.6,2.3,1.1,4.7,1.5,7.2
		c27.7-23.4,50.4-30.9,66.2-21.5c20.4,12,18.8,44.7,11.7,75.3c4.3-1.2,8.4-2.1,12.3-2.5c3.2-0.4,6.4,0.9,8.4,3.4
		S512.5,155.8,511.5,158.9z M467.8,90.1c-7.1-4.2-25.6,1.2-54.9,29.2c-0.2,24.2-5.2,54.3-14.3,87.7c24.3-22.1,48-38.9,68.8-49.3
		C478.8,117.6,475.9,94.9,467.8,90.1z M458.5,105.9c-4.5-2.7-10.3-1.2-13,3.4l-1.2,2c-0.9,1.5-1.3,3.2-1.3,4.8
		c0,3.2,1.7,6.4,4.7,8.2c1.5,0.9,3.2,1.3,4.8,1.3c3.2,0,6.4-1.7,8.2-4.7l1.2-2c0.9-1.5,1.3-3.2,1.3-4.8
		C463.2,110.8,461.5,107.6,458.5,105.9z M169,399.8c2.7-4.5,1.2-10.3-3.3-13c-4.5-2.7-10.3-1.2-13,3.3c-2.5,4.1-6,6.5-9.8,6.5
		c-3.7,0-7.3-2.4-9.8-6.5c-2.7-4.5-8.5-6-13-3.3c-4.5,2.7-6,8.5-3.3,13c5.9,9.8,15.6,15.7,26,15.7
		C153.4,415.5,163.1,409.6,169,399.8z M240.2,399.8c2.7-4.5,1.2-10.3-3.3-13c-4.5-2.7-10.3-1.2-13,3.3c-2.5,4.1-6,6.5-9.8,6.5
		s-7.3-2.4-9.8-6.5c-2.7-4.5-8.5-6-13-3.3c-4.5,2.7-6,8.5-3.3,13c5.9,9.8,15.6,15.7,26,15.7C224.6,415.5,234.3,409.6,240.2,399.8z
		 M356.6,415.5c10.4,0,20.2-5.9,26-15.7c2.7-4.5,1.2-10.3-3.3-13c-4.5-2.7-10.3-1.2-13,3.3c-2.5,4.1-6,6.5-9.8,6.5
		c-3.7,0-7.3-2.4-9.8-6.5c-2.7-4.5-8.5-6-13-3.3s-6,8.5-3.3,13C336.5,409.6,346.2,415.5,356.6,415.5z M198.5,426.2
		c-4.5-2.7-10.3-1.2-13,3.3c-2.5,4.1-6,6.5-9.8,6.5c-3.7,0-7.3-2.4-9.8-6.5c-2.7-4.5-8.5-6-13-3.3c-4.5,2.7-6,8.5-3.3,13
		c5.9,9.8,15.6,15.7,26,15.7c10.4,0,20.2-5.9,26-15.7C204.5,434.7,203,428.8,198.5,426.2z M240,429.4c-2.7-4.5-8.5-6-13-3.3
		c-4.5,2.7-6,8.5-3.3,13c5.9,9.8,15.6,15.7,26,15.7c10.4,0,20.2-5.9,26-15.7c2.7-4.5,1.2-10.3-3.3-13c-4.5-2.7-10.3-1.2-13,3.3
		c-2.5,4.1-6,6.5-9.8,6.5C246.1,435.9,242.5,433.6,240,429.4z M285.4,415.5c10.4,0,20.2-5.9,26-15.7c2.7-4.5,1.2-10.3-3.3-13
		c-4.5-2.7-10.3-1.2-13,3.3c-2.5,4.1-6,6.5-9.8,6.5c-3.7,0-7.3-2.4-9.8-6.5c-2.7-4.5-8.5-6-13-3.3c-4.5,2.7-6,8.5-3.3,13
		C265.2,409.6,275,415.5,285.4,415.5z M301.1,426.2c-4.5,2.7-6,8.5-3.3,13c5.9,9.8,15.6,15.7,26,15.7s20.2-5.9,26-15.7
		c2.7-4.5,1.2-10.3-3.3-13c-4.5-2.7-10.3-1.2-13,3.3c-2.5,4.1-6,6.5-9.8,6.5s-7.3-2.4-9.8-6.5C311.4,424.9,305.6,423.5,301.1,426.2z
		"/>
</g>
</svg>
