<?xml version="1.0" encoding="utf-8"?>
<!-- Generator: Adobe Illustrator 26.3.0, SVG Export Plug-In . SVG Version: 6.00 Build 0)  -->
<svg version="1.1" id="Capa_1" xmlns="http://www.w3.org/2000/svg" xmlns:xlink="http://www.w3.org/1999/xlink" x="0px" y="0px"
	 viewBox="0 0 480 480" style="enable-background:new 0 0 480 480;" xml:space="preserve">
<style type="text/css">
	.st0{fill:#BC955C;}
	.st1{font-family:'Graphik-Bold';}
	.st2{font-size:55.206px;}
	.st3{font-size:46.6875px;}
</style>
<g>
	<g>
		<path class="st0" d="M464,144c3.1,0,6.4-0.5,10-1.4c3.5-0.9,6-4.1,6-7.7V104c0-0.1-0.1-0.2-0.1-0.3c0-0.9-0.1-1.7-0.4-2.5
			L456,38.5V8c0-4.4-3.6-8-8-8H32c-4.4,0-8,3.6-8,8v30.5L0.5,101.2c-0.3,0.8-0.4,1.7-0.4,2.5c0,0.1-0.1,0.2-0.1,0.3v30.9
			c0,3.6,2.5,6.8,6,7.7c3.6,0.9,6.9,1.4,10,1.4c9,0,17.3-3.1,24-8.2V320H8c-4.4,0-8,3.6-8,8v32c0,4.4,3.6,8,8,8h14.1L0.2,470.3
			c-0.5,2.4,0.1,4.8,1.6,6.7c1.5,1.9,3.8,3,6.2,3h464c2.4,0,4.7-1.1,6.2-3s2.1-4.3,1.6-6.7L457.9,368H472c4.4,0,8-3.6,8-8v-32
			c0-4.4-3.6-8-8-8h-32V135.8C446.7,140.9,455,144,464,144z M464,128c-10.4,0-19.3-6.7-22.6-16H464V128z M40,16h400v16h-32h-56h-56
			h-56h-56h-56H72H40V16z M307.5,285.6c-0.4-0.5-0.8-1-1.2-1.5l15.7-17.5c3.1-3.4,8.8-3.4,11.9,0l15.7,17.5c-0.4,0.5-0.8,1-1.2,1.5
			L328,314.2L307.5,285.6z M312.5,320h-48.9l17.9-25.1c2.3-3.2,6.7-4,10-2.4c1.2,0.6,2.2,1.4,3,2.4L312.5,320z M361.5,294.9
			c0.7-1,1.8-1.8,3-2.4c3.4-1.6,7.8-0.8,10,2.4l17.9,25.1h-48.9L361.5,294.9z M387.5,285.6c-4.5-6.3-11.8-10-19.5-10
			c-1.4,0-2.7,0.3-4,0.5l-18.1-20.2c-2.7-3-6.1-5-9.8-6.2v-11.9l42.5-14.2c3.1-1,5.2-3.8,5.4-7s-1.5-6.3-4.4-7.7l-48-24
			c-2.5-1.2-5.4-1.1-7.8,0.4s-3.8,4-3.8,6.8v57.7c-3.7,1.2-7.2,3.2-9.8,6.2L292,276c-1.3-0.2-2.7-0.5-4-0.5c-7.7,0-15,3.8-19.5,10
			L243.9,320h-16.3c2.8-4.7,4.5-10.1,4.5-16c0-14.9-10.3-27.4-24.1-30.9c0-0.4,0.1-0.7,0.1-1.1c0-14.9-10.3-27.4-24.1-30.9
			c0-0.4,0.1-0.7,0.1-1.1c0-17.6-14.4-32-32-32s-32,14.4-32,32c0,0.4,0.1,0.7,0.1,1.1c-13.8,3.5-24.1,16-24.1,30.9
			c0,0.4,0.1,0.7,0.1,1.1C82.3,276.6,72,289.1,72,304c0,5.9,1.7,11.3,4.4,16H56V135.8c6.7,5.1,15,8.2,24,8.2
			c13.1,0,24.7-6.4,32-16.2c7.3,9.8,18.9,16.2,32,16.2s24.7-6.4,32-16.2c7.3,9.8,18.9,16.2,32,16.2s24.7-6.4,32-16.2
			c7.3,9.8,18.9,16.2,32,16.2s24.7-6.4,32-16.2c7.3,9.8,18.9,16.2,32,16.2s24.7-6.4,32-16.2c7.3,9.8,18.9,16.2,32,16.2
			c9,0,17.3-3.1,24-8.2V320h-11.9L387.5,285.6z M336,220.9v-16l19.2,9.6L336,220.9z M119.6,276.2c-2.4-1.3-4.9-2.4-7.5-3.1
			c0-0.4,0-0.8,0-1.1c0-8.8,7.2-16,16-16c0.2,0,0.5,0.1,0.7,0.1c0.1,0,0.2,0.1,0.3,0.1c6.3,0.4,11.8,4.5,14,10.4c0,0,0,0.1,0.1,0.1
			c0.6,1.7,1,3.4,1,5.3c0,0.4,0,0.8,0,1.1c-2.7,0.7-5.2,1.8-7.5,3.1c-0.6,0.4-1.3,0.7-1.9,1.1c-0.9,0.6-1.8,1.2-2.7,1.9
			c-0.7,0.5-1.3,1.2-1.9,1.8c-0.6,0.6-1.3,1.1-1.9,1.8c-0.6-0.7-1.3-1.2-1.9-1.8s-1.2-1.2-1.9-1.8c-0.9-0.7-1.8-1.3-2.7-1.9
			C120.9,277,120.2,276.6,119.6,276.2z M120,304c0,8.8-7.2,16-16,16s-16-7.2-16-16s7.2-16,16-16c0.2,0,0.5,0.1,0.7,0.1
			c0.1,0,0.2,0.1,0.3,0.1c6.3,0.4,11.8,4.5,14,10.4c0,0,0,0.1,0.1,0.1C119.6,300.3,120,302.1,120,304z M136,240c0-8.8,7.2-16,16-16
			s16,7.2,16,16c0,0.4,0,0.8,0,1.1c-0.2,0-0.4,0.1-0.6,0.2c-2.8,0.8-5.4,1.9-7.9,3.4c-0.1,0.1-0.2,0.1-0.3,0.2c-1,0.6-2,1.4-3,2.1
			c-0.5,0.4-0.9,0.7-1.4,1.1c-0.9,0.8-1.7,1.6-2.5,2.4c-0.1,0.1-0.3,0.2-0.4,0.4c-0.1-0.1-0.3-0.2-0.4-0.4c-0.8-0.9-1.6-1.6-2.5-2.4
			c-0.4-0.4-0.9-0.8-1.4-1.1c-1-0.8-1.9-1.5-3-2.1c-0.1-0.1-0.2-0.1-0.3-0.2c-2.4-1.5-5.1-2.6-7.9-3.4c-0.2-0.1-0.4-0.2-0.6-0.2
			C136,240.8,136,240.4,136,240z M137,298.7c0,0,0-0.1,0.1-0.1c2.2-5.9,7.6-10,14-10.4c0.1,0,0.2-0.1,0.3-0.1c0.2,0,0.5-0.1,0.7-0.1
			s0.5,0.1,0.7,0.1c0.1,0,0.2,0.1,0.3,0.1c6.3,0.4,11.8,4.5,14,10.4c0,0,0,0.1,0.1,0.1c0.6,1.7,1,3.4,1,5.3c0,8.8-7.2,16-16,16
			s-16-7.2-16-16C136,302.1,136.4,300.4,137,298.7z M167.6,276.2c-2.4-1.3-4.9-2.4-7.5-3.1c0-0.4,0-0.8,0-1.1c0-1.9,0.4-3.6,1-5.3
			c0,0,0-0.1,0.1-0.1c2.2-5.9,7.6-10,14-10.4c0.1,0,0.2-0.1,0.3-0.1c0.2,0,0.5-0.1,0.7-0.1c8.8,0,16,7.2,16,16c0,0.4,0,0.8,0,1.1
			c-2.7,0.7-5.2,1.8-7.5,3.1c-0.6,0.4-1.3,0.7-1.9,1.1c-0.9,0.6-1.8,1.2-2.7,1.9c-0.7,0.5-1.3,1.2-1.9,1.8c-0.6,0.6-1.3,1.1-1.9,1.8
			c-0.6-0.7-1.3-1.2-1.9-1.8s-1.2-1.2-1.9-1.8c-0.9-0.7-1.8-1.3-2.7-1.9C168.9,277,168.2,276.6,167.6,276.2z M185,298.7
			c0,0,0-0.1,0.1-0.1c2.2-5.9,7.6-10,14-10.4c0.1,0,0.2-0.1,0.3-0.1c0.2,0,0.5-0.1,0.7-0.1c8.8,0,16,7.2,16,16s-7.2,16-16,16
			s-16-7.2-16-16C184,302.1,184.4,300.4,185,298.7z M102.5,112c-3.3,9.3-12.1,16-22.5,16s-19.2-6.7-22.5-16H102.5z M59.5,96l18-48
			h40.2l-12,48H59.5z M166.5,112c-3.3,9.3-12.1,16-22.5,16s-19.2-6.7-22.5-16H166.5z M122.2,96l12-48h40.7l-6,48H122.2z M185.1,96
			l6-48H232v48H185.1z M230.5,112c-3.3,9.3-12.1,16-22.5,16s-19.2-6.7-22.5-16H230.5z M248,96V48h40.9l6,48H248z M294.5,112
			c-3.3,9.3-12.1,16-22.5,16s-19.2-6.7-22.5-16H294.5z M311.1,96l-6-48h40.7l12,48H311.1z M358.5,112c-3.3,9.3-12.1,16-22.5,16
			s-19.2-6.7-22.5-16H358.5z M400,128c-10.4,0-19.2-6.7-22.5-16h45.1C419.2,121.3,410.4,128,400,128z M374.2,96l-12-48h40.2l18,48
			H374.2z M16,128v-16h22.6C35.3,121.3,26.4,128,16,128z M19.5,96l18-48h22.9l-18,48H19.5z M462.1,464H17.9l20.6-96h403.1L462.1,464
			z M464,336v16h-16H32H16v-16h232h160H464z M437.5,96l-18-48h22.9l18,48H437.5z"/>
	</g>
</g>
<g>
	<text transform="matrix(1 0 0 1 104.7817 414)" class="st0 st1 st2">TIANGUIS</text>
</g>
<g>
	<text transform="matrix(1 0 0 1 111.4717 459.4893)" class="st0 st1 st3">SEDAGROH</text>
</g>
</svg>
