<?xml version="1.0" encoding="utf-8"?>
<!-- Generator: Adobe Illustrator 26.3.0, SVG Export Plug-In . SVG Version: 6.00 Build 0)  -->
<svg version="1.1" id="Capa_1" xmlns="http://www.w3.org/2000/svg" xmlns:xlink="http://www.w3.org/1999/xlink" x="0px" y="0px"
	 viewBox="0 0 512 512" style="enable-background:new 0 0 512 512;" xml:space="preserve">
<style type="text/css">
	.st0{fill:#BC955C;}
</style>
<g>
	<g>
		<path class="st0" d="M437.1,75c-19.6-19.6-41.6-35.6-65.2-47.4c-5.2-2.6-11.4-0.5-14,4.7c-2.6,5.1-0.5,11.4,4.7,14
			c21.7,10.8,41.8,25.4,59.8,43.5c91.7,91.7,91.7,240.9,0,332.6s-240.9,91.7-332.6,0S-2,181.4,89.7,89.7
			C134.1,45.3,193.2,20.8,256,20.8c5.8,0,10.4-4.7,10.4-10.4S261.8,0,256,0C187.6,0,123.3,26.6,74.9,75
			c-99.8,99.8-99.8,262.3,0,362.1C124.9,487,190.4,512,256,512s131.1-25,181.1-74.9C536.9,337.3,536.9,174.8,437.1,75z"/>
		<path class="st0" d="M256,90.3c-5.8,0-10.4,4.7-10.4,10.4v310.7c0,5.8,4.7,10.4,10.4,10.4c5.8,0,10.4-4.7,10.4-10.4V100.7
			C266.4,95,261.8,90.3,256,90.3z"/>
		<path class="st0" d="M297.7,266.5h113.6c5.8,0,10.4-4.7,10.4-10.4c0-5.8-4.7-10.4-10.4-10.4H297.7c-5.8,0-10.4,4.7-10.4,10.4
			C287.3,261.8,291.9,266.5,297.7,266.5z"/>
		<path class="st0" d="M100.7,245.6c-5.8,0-10.4,4.7-10.4,10.4c0,5.8,4.7,10.4,10.4,10.4h110.2c5.8,0,10.4-4.7,10.4-10.4
			c0-5.8-4.7-10.4-10.4-10.4H100.7z"/>
	</g>
</g>
</svg>
