<?xml version="1.0" encoding="utf-8"?>
<!-- Generator: Adobe Illustrator 22.0.0, SVG Export Plug-In . SVG Version: 6.00 Build 0)  -->
<svg version="1.1" id="Capa_1" xmlns="http://www.w3.org/2000/svg" xmlns:xlink="http://www.w3.org/1999/xlink" x="0px" y="0px"
	 viewBox="0 0 100 100" style="enable-background:new 0 0 100 100;" xml:space="preserve">
<style type="text/css">
	.st0{fill:#092432;}
</style>
<g id="BNTwQS.tif_1_">
	<g>
		<g>
			<path class="st0" d="M0,94.6c6.6-6.7,13.2-13.3,19.8-20c3.1-3.2,6.3-6.3,9.4-9.4c2.7-2.7,4.6-2.4,6.3,1c3,6.2,6,12.4,8.9,18.6
				c0.3,0.7,0.7,1.4,1.3,2.6C50.9,71,55.9,55,61.1,38.5C44.9,43.8,29.2,49,12.9,54.3c2.3,1.1,4.2,2,6.1,2.8c2.1,1,4.3,1.9,6.5,2.9
				c1.5,0.8,2.1,2.1,1.4,3.7c-0.7,1.6-2.1,2.3-3.8,1.6c-6.5-2.9-13-5.8-19.4-8.8c-0.9-0.4-1.9-2-1.8-2.9c0.2-1,1.4-2.3,2.5-2.6
				c10.2-3.5,20.4-6.8,30.7-10.2c9.5-3.1,19.1-6.3,28.6-9.3c1.2-0.4,3.1-0.3,3.8,0.4c0.7,0.7,0.9,2.6,0.5,3.8
				c-6.2,20-12.4,39.9-18.7,59.8c-0.4,1.4-1.1,2.6-2.8,2.7c-1.8,0.2-2.7-1-3.3-2.4c-3.6-7.5-7.2-14.9-10.8-22.4
				c-0.3-0.7-0.6-1.3-1.1-2.2c-6.2,6.2-12.2,12.3-18.3,18.4c-2.4,2.4-4.8,4.8-7.2,7.2c-2.4,2.4-4,2.2-5.9-0.6C0,95.8,0,95.2,0,94.6z
				"/>
			<path class="st0" d="M100,49.7c-0.7,3.5-1.1,7-2.2,10.4c-5,15.1-15.2,25-30.4,29.8c-2.5,0.8-4,0.2-4.6-1.7
				c-0.6-1.7,0.4-3.1,2.9-3.9C81,79.2,90.6,68.9,93.4,53c3.7-20.3-9.6-40.8-30.9-44.9c-18.9-3.7-36,5.4-43.9,22.9
				c-1,2.2-2.4,3-4.1,2.3c-1.7-0.7-2.2-2.4-1.2-4.7C19.7,14.3,30.6,5.3,45.8,2.3c24.8-4.8,47.5,10.3,53.1,34.9
				c0.5,2.4,0.8,4.8,1.1,7.2C100,46.2,100,48,100,49.7z"/>
			<path class="st0" d="M55.4,14.5c16.2,0,29.6,12.3,31.4,28.4c1.5,13.5-6.3,27.3-19.2,32.7c-1.6,0.6-3.2,1-4.2-0.5
				c-0.5-0.9-0.4-2.5,0-3.6c0.2-0.6,1.4-1,2.2-1.4c10.3-4.6,16.2-14.9,15.5-24.8c-0.8-12.2-8.3-21.2-19.5-24.1
				c-11.4-3-23.7,2.5-29.2,12.9c-0.5,0.9-1,2-1.8,2.3c-0.9,0.3-2.3,0.2-3.2-0.3c-1.3-0.7-1.4-2.1-0.7-3.5c1.8-4,4.4-7.4,7.7-10.2
				C40.4,17.2,47.4,14.5,55.4,14.5z"/>
		</g>
	</g>
</g>
</svg>
